<svg xmlns="http://www.w3.org/2000/svg" viewBox="0 0 3831 5747"><filter id="b"><feGaussianBlur stdDeviation="12" /></filter><path d="M0 0h3831v5747H0z" fill="#626753" /><g filter="url(#b)" transform="scale(22.449219) translate(0.5 0.5)"><g transform="translate(67.921211 139.129249) rotate(264.831658) scale(18.713512 135.585294)"><ellipse fill="#fff" fill-opacity=".501961" cx="0" cy="0" rx="1" ry="1" /></g><ellipse fill="#233d29" fill-opacity=".501961" cx="83" cy="32" rx="169" ry="41" /><g transform="translate(68.357608 198.591468) rotate(-6.364349) scale(80.678963 43.744361)"><ellipse fill="#3e2a23" fill-opacity=".501961" cx="0" cy="0" rx="1" ry="1" /></g><g transform="translate(28.254056 141.907299) rotate(267.542887) scale(17.326185 33.120995)"><ellipse fill="#fff" fill-opacity=".501961" cx="0" cy="0" rx="1" ry="1" /></g><g transform="translate(113.076997 249.648232) rotate(355.471783) scale(80.830292 24.069269)"><ellipse fill="#d38662" fill-opacity=".501961" cx="0" cy="0" rx="1" ry="1" /></g><g transform="translate(78.455244 104.202774) rotate(-5.163604) scale(78.300812 18.102397)"><ellipse fill="#193e24" fill-opacity=".501961" cx="0" cy="0" rx="1" ry="1" /></g><path fill="#b4eb61" fill-opacity=".501961" d="M-16 86.330504 161.182986 81.847746 175.720084 73.032832 6.838217 73.566644z" /><ellipse fill="#a7cd6f" fill-opacity=".501961" cx="12" cy="46" rx="30" ry="7" /></g></svg>