<svg xmlns="http://www.w3.org/2000/svg" viewBox="0 0 5651 3767"><filter id="b"><feGaussianBlur stdDeviation="12" /></filter><path d="M0 0h5651v3767H0z" fill="#5f7383" /><g filter="url(#b)" transform="scale(22.074219) translate(0.5 0.5)"><ellipse fill="#281a13" fill-opacity=".501961" cx="210" cy="162" rx="76" ry="76" /><g transform="translate(80.610174 70.995930) rotate(132.077518) scale(45.071916 63.955862)"><ellipse fill="#8cc6f2" fill-opacity=".501961" cx="0" cy="0" rx="1" ry="1" /></g><ellipse fill="#fffff5" fill-opacity=".501961" cx="211" cy="49" rx="8" ry="83" /><g transform="translate(105.870492 15.116971) rotate(262.173541) scale(39.677792 75.368029)"><ellipse fill="#237ce2" fill-opacity=".501961" cx="0" cy="0" rx="1" ry="1" /></g><g transform="translate(13.562298 14.888902) rotate(16.683995) scale(19.686313 51.311459)"><ellipse fill="#281200" fill-opacity=".501961" cx="0" cy="0" rx="1" ry="1" /></g><g transform="translate(102.122895 125.292048) rotate(193.561068) scale(31.606229 49.270093)"><ellipse fill="#bcb09c" fill-opacity=".501961" cx="0" cy="0" rx="1" ry="1" /></g><ellipse fill="#212120" fill-opacity=".501961" cx="249" cy="80" rx="25" ry="167" /><path d="M0 0h5651v3767H0z" fill="#f3f9ff" /></g></svg>