<svg xmlns="http://www.w3.org/2000/svg" viewBox="0 0 3965 5948"><filter id="b"><feGaussianBlur stdDeviation="12" /></filter><path d="M0 0h3965v5948H0z" fill="#747366" /><g filter="url(#b)" transform="scale(23.234375) translate(0.5 0.5)"><g transform="translate(103.279031 37.806831) rotate(261.963109) scale(78.674068 17.380684)"><ellipse fill="#ffffe2" fill-opacity=".501961" cx="0" cy="0" rx="1" ry="1" /></g><ellipse fill="#241a24" fill-opacity=".501961" cx="92" cy="217" rx="61" ry="61" /><g transform="translate(0.000000 162.560683) rotate(195.440195) scale(59.187621 66.425630)"><ellipse fill="#b9c1c0" fill-opacity=".501961" cx="0" cy="0" rx="1" ry="1" /></g><ellipse fill="#d2dbe5" fill-opacity=".501961" cx="162" cy="134" rx="13" ry="95" /><ellipse fill="#0f0e05" fill-opacity=".501961" cx="40" cy="78" rx="23" ry="23" /><g transform="translate(116.774037 113.835685) rotate(300.162362) scale(45.183338 14.488877)"><ellipse fill="#cfd59e" fill-opacity=".501961" cx="0" cy="0" rx="1" ry="1" /></g><g transform="translate(76.918965 99.351661) rotate(288.102215) scale(26.342720 21.511138)"><ellipse fill="#361306" fill-opacity=".501961" cx="0" cy="0" rx="1" ry="1" /></g><ellipse fill="#342e2b" fill-opacity=".501961" cx="35" cy="242" rx="36" ry="36" /></g></svg>