<svg xmlns="http://www.w3.org/2000/svg" viewBox="0 0 4000 6000"><filter id="b"><feGaussianBlur stdDeviation="12" /></filter><path d="M0 0h4e3v6e3H0z" fill="#627a7c" /><g filter="url(#b)" transform="scale(23.437500) translate(0.5 0.5)"><g transform="translate(64.560358 188.797778) rotate(133.787312) scale(73.183326 130.799480)"><ellipse fill="#000" fill-opacity=".501961" cx="0" cy="0" rx="1" ry="1" /></g><g transform="translate(119.079035 54.430432) rotate(305.681780) scale(65.522419 169.000000)"><ellipse fill="#e2ffff" fill-opacity=".501961" cx="0" cy="0" rx="1" ry="1" /></g><g transform="translate(5.092717 62.469226) rotate(34.955192) scale(29.220951 31.883302)"><ellipse fill="#e0ffff" fill-opacity=".501961" cx="0" cy="0" rx="1" ry="1" /></g><ellipse fill="azure" fill-opacity=".501961" cx="164" cy="169" rx="23" ry="23" /><ellipse fill="#00200b" fill-opacity=".501961" cx="55" cy="115" rx="38" ry="37" /><ellipse fill="#000e00" fill-opacity=".501961" cx="116" cy="241" rx="63" ry="63" /><path d="M0 0h4e3v6e3H0z" fill="#e5f8e6" /><g transform="translate(121.560170 143.000990) rotate(151.345479) scale(22.502401 48.017949)"><ellipse fill="#9b8b85" fill-opacity=".501961" cx="0" cy="0" rx="1" ry="1" /></g></g></svg>