<svg xmlns="http://www.w3.org/2000/svg" viewBox="0 0 4000 6000"><filter id="b"><feGaussianBlur stdDeviation="12" /></filter><path d="M0 0h4e3v6e3H0z" fill="#8a7b65" /><g filter="url(#b)" transform="scale(23.437500) translate(0.5 0.5)"><g transform="translate(82.706700 217.733196) rotate(-1.458812) scale(49.090007 28.570239)"><ellipse fill="#000" fill-opacity=".501961" cx="0" cy="0" rx="1" ry="1" /></g><ellipse fill="#f8eede" fill-opacity=".501961" cx="79" cy="82" rx="71" ry="53" /><ellipse fill="#000" fill-opacity=".501961" cx="24" cy="13" rx="67" ry="26" /><ellipse fill="#000" fill-opacity=".501961" cx="0" cy="35" rx="18" ry="50" /><g transform="translate(79 169) rotate(287) scale(28 47)"><path d="M0 0h4e3v6e3H0z" fill="#f7e7b4" /></g><g transform="translate(133.829509 0.000000) rotate(258.583582) scale(72.597978 9.754807)"><ellipse fill="#0e1200" fill-opacity=".501961" cx="0" cy="0" rx="1" ry="1" /></g><ellipse fill="#fff2bb" fill-opacity=".501961" cx="169" cy="30" rx="21" ry="21" /><g transform="translate(34.136843 179.086614) rotate(24.375964) scale(106.230231 10.587059)"><ellipse fill="#2c2210" fill-opacity=".501961" cx="0" cy="0" rx="1" ry="1" /></g></g></svg>