<svg xmlns="http://www.w3.org/2000/svg" viewBox="0 0 2862 4292"><filter id="b"><feGaussianBlur stdDeviation="12" /></filter><path d="M0 0h2862v4292H0z" fill="#96aebb" /><g filter="url(#b)" transform="scale(16.765625) translate(0.5 0.5)"><g transform="translate(44.436393 204.781117) rotate(181.961333) scale(114.864966 22.178336)"><ellipse fill="#32371f" fill-opacity=".501961" cx="0" cy="0" rx="1" ry="1" /></g><ellipse fill="#cbecff" fill-opacity=".501961" cx="100" cy="71" rx="65" ry="65" /><ellipse fill="#000" fill-opacity=".501961" cx="170" cy="244" rx="13" ry="18" /><g transform="translate(17.928859 162.302994) rotate(111.600972) scale(44.156291 19.677157)"><ellipse fill="#3d5967" fill-opacity=".501961" cx="0" cy="0" rx="1" ry="1" /></g><g transform="translate(27 249) rotate(361) scale(19 14)"><path d="M0 0h2862v4292H0z" fill="#000" /></g><ellipse fill="#fffdf4" fill-opacity=".501961" cx="123" cy="152" rx="21" ry="32" /><path d="M0 0h2862v4292H0z" fill="#335b3c" /><g transform="translate(81.653196 17.185455) rotate(262.820839) scale(27.697263 124.593550)"><ellipse fill="#94c8ff" fill-opacity=".501961" cx="0" cy="0" rx="1" ry="1" /></g></g></svg>