<svg xmlns="http://www.w3.org/2000/svg" viewBox="0 0 6000 4000"><filter id="b"><feGaussianBlur stdDeviation="12" /></filter><path d="M0 0h6e3v4e3H0z" fill="#71734f" /><g filter="url(#b)" transform="scale(23.437500) translate(0.5 0.5)"><ellipse fill="#ffff85" fill-opacity=".501961" cx="110" cy="148" rx="110" ry="27" /><ellipse fill="#242b2c" fill-opacity=".501961" cx="149" cy="88" rx="255" ry="36" /><g transform="translate(116.431183 19.257828) rotate(-24.635923) scale(68.115248 23.185093)"><ellipse fill="#b5c5bb" fill-opacity=".501961" cx="0" cy="0" rx="1" ry="1" /></g><g transform="translate(0.000000 7.287036) rotate(46.800056) scale(44.578456 36.900959)"><ellipse fill="#e1dcd7" fill-opacity=".501961" cx="0" cy="0" rx="1" ry="1" /></g><path fill="#000" fill-opacity=".501961" d="M114 102l157 53V112z" /><g transform="translate(42.939686 34.554249) rotate(195.098612) scale(10.150650 67.039560)"><ellipse fill="#000" fill-opacity=".501961" cx="0" cy="0" rx="1" ry="1" /></g><g transform="translate(226 40) rotate(234) scale(93 124)"><path d="M0 0h6e3v4e3H0z" fill="#544710" /></g><path d="M0 0h6e3v4e3H0z" fill="#d2d1a1" /></g></svg>