<svg xmlns="http://www.w3.org/2000/svg" viewBox="0 0 3936 5904"><filter id="b"><feGaussianBlur stdDeviation="12" /></filter><path d="M0 0h3936v5904H0z" fill="#636c61" /><g filter="url(#b)" transform="scale(23.062500) translate(0.5 0.5)"><g transform="translate(123.225570 230.877966) rotate(125.054167) scale(80.958828 27.303507)"><ellipse fill="#ede6d9" fill-opacity=".501961" cx="0" cy="0" rx="1" ry="1" /></g><ellipse fill="#fff" fill-opacity=".501961" cx="114" cy="0" rx="58" ry="23" /><ellipse fill="#011d02" fill-opacity=".501961" cx="39" cy="52" rx="169" ry="31" /><g transform="translate(67.926071 153.983275) rotate(60.781936) scale(10.917207 145.534613)"><ellipse fill="#030f13" fill-opacity=".501961" cx="0" cy="0" rx="1" ry="1" /></g><ellipse fill="#000600" fill-opacity=".501961" cx="29" cy="112" rx="37" ry="11" /><g transform="translate(20.913952 141.234850) rotate(167.188221) scale(52.775746 15.206841)"><ellipse fill="#c9c7c8" fill-opacity=".501961" cx="0" cy="0" rx="1" ry="1" /></g><ellipse fill="#f2ffff" fill-opacity=".501961" cx="98" cy="5" rx="34" ry="21" /><g transform="translate(87.999510 192.212650) rotate(157.723333) scale(81.385002 32.376638)"><ellipse fill="#918f92" fill-opacity=".501961" cx="0" cy="0" rx="1" ry="1" /></g></g></svg>