<svg xmlns="http://www.w3.org/2000/svg" viewBox="0 0 3975 5962"><filter id="b"><feGaussianBlur stdDeviation="12" /></filter><path d="M0 0h3975v5962H0z" fill="#78746f" /><g filter="url(#b)" transform="scale(23.289062) translate(0.5 0.5)"><g transform="translate(84.534132 40.792087) rotate(27.836445) scale(32.748668 45.657343)"><ellipse fill="#000" fill-opacity=".501961" cx="0" cy="0" rx="1" ry="1" /></g><ellipse fill="#d4decc" fill-opacity=".501961" cx="130" cy="118" rx="44" ry="44" /><ellipse fill="#f7f3ea" fill-opacity=".501961" cx="39" cy="127" rx="12" ry="105" /><g transform="translate(145.961459 191.996653) rotate(202.876285) scale(40.024189 21.472096)"><ellipse fill="#000d16" fill-opacity=".501961" cx="0" cy="0" rx="1" ry="1" /></g><g transform="translate(138.475718 235.687818) rotate(344.895948) scale(41.965402 19.161997)"><ellipse fill="#c8b6b3" fill-opacity=".501961" cx="0" cy="0" rx="1" ry="1" /></g><ellipse fill="#261600" fill-opacity=".501961" cx="21" cy="41" rx="8" ry="62" /><path fill="#ced0d7" fill-opacity=".501961" d="M-16 68 2 210l18-95z" /><g transform="translate(81.097481 22.865915) rotate(362.581822) scale(31.710810 55.965847)"><ellipse fill="#101317" fill-opacity=".501961" cx="0" cy="0" rx="1" ry="1" /></g></g></svg>