<svg xmlns="http://www.w3.org/2000/svg" viewBox="0 0 4000 6000"><filter id="b"><feGaussianBlur stdDeviation="12" /></filter><path d="M0 0h4e3v6e3H0z" fill="#72685a" /><g filter="url(#b)" transform="scale(23.437500) translate(0.5 0.5)"><ellipse fill="#fff" fill-opacity=".501961" cx="48" cy="47" rx="62" ry="51" /><ellipse fill="#000" fill-opacity=".501961" cx="169" cy="67" rx="69" ry="69" /><path fill="#fff" fill-opacity=".501961" d="M106 14l-5 111L-16-6z" /><ellipse fill="#4f371b" fill-opacity=".501961" cx="75" cy="204" rx="110" ry="110" /><g transform="translate(25.313821 107.205085) rotate(148.696041) scale(32.283538 36.669678)"><ellipse fill="#2e4247" fill-opacity=".501961" cx="0" cy="0" rx="1" ry="1" /></g><g transform="translate(34.557581 35.987972) rotate(207.455620) scale(83.304589 42.451522)"><ellipse fill="#fcffff" fill-opacity=".501961" cx="0" cy="0" rx="1" ry="1" /></g><g transform="translate(119.292421 0.000000) rotate(36.935917) scale(82.976391 28.634482)"><ellipse fill="#050400" fill-opacity=".501961" cx="0" cy="0" rx="1" ry="1" /></g><path fill="#eeb688" fill-opacity=".501961" d="M22 182l107 5-35-21z" /></g></svg>