<svg xmlns="http://www.w3.org/2000/svg" viewBox="0 0 4000 6000"><filter id="b"><feGaussianBlur stdDeviation="12" /></filter><path d="M0 0h4e3v6e3H0z" fill="#7a736f" /><g filter="url(#b)" transform="scale(23.437500) translate(0.5 0.5)"><ellipse fill="#090009" fill-opacity=".501961" cx="53" cy="66" rx="113" ry="23" /><g transform="translate(80.882414 255.000000) rotate(236.989011) scale(54.123242 169.000000)"><ellipse fill="#c0c1be" fill-opacity=".501961" cx="0" cy="0" rx="1" ry="1" /></g><ellipse fill="#3f0000" fill-opacity=".501961" cx="107" cy="24" rx="18" ry="61" /><g transform="translate(2.892730 189.720456) rotate(116.381560) scale(28.844256 75.195561)"><ellipse fill="#b3b6b2" fill-opacity=".501961" cx="0" cy="0" rx="1" ry="1" /></g><g transform="translate(57.772256 115.365168) rotate(260.471281) scale(19.141779 34.679568)"><ellipse fill="#b26800" fill-opacity=".501961" cx="0" cy="0" rx="1" ry="1" /></g><g transform="translate(60.767069 163.718711) rotate(193.760675) scale(53.455849 19.923163)"><ellipse fill="#2a4b4f" fill-opacity=".501961" cx="0" cy="0" rx="1" ry="1" /></g><g transform="translate(160.463402 116.826096) rotate(243.116588) scale(44.075814 29.954362)"><ellipse fill="#b4b8b3" fill-opacity=".501961" cx="0" cy="0" rx="1" ry="1" /></g><ellipse fill="#5b5461" fill-opacity=".501961" cx="23" cy="20" rx="56" ry="56" /></g></svg>