<svg xmlns="http://www.w3.org/2000/svg" viewBox="0 0 4000 6000"><filter id="b"><feGaussianBlur stdDeviation="12" /></filter><path d="M0 0h4e3v6e3H0z" fill="#788b63" /><g filter="url(#b)" transform="scale(23.437500) translate(0.5 0.5)"><g transform="translate(164.837350 88.627722) rotate(205.836471) scale(54.969384 84.718572)"><ellipse fill="#bec0ae" fill-opacity=".501961" cx="0" cy="0" rx="1" ry="1" /></g><g transform="translate(77.351278 157.602104) rotate(285.291118) scale(21.323221 38.531137)"><ellipse fill="#1f3e00" fill-opacity=".501961" cx="0" cy="0" rx="1" ry="1" /></g><g transform="translate(16.798659 35.638075) rotate(211.806792) scale(14.499963 37.652982)"><ellipse fill="#013b0c" fill-opacity=".501961" cx="0" cy="0" rx="1" ry="1" /></g><ellipse fill="#507605" fill-opacity=".501961" cx="84" cy="38" rx="30" ry="30" /><path d="M0 0h4e3v6e3H0z" fill="#00000b" /><ellipse fill="#163d30" fill-opacity=".501961" cx="108" cy="240" rx="24" ry="14" /><g transform="translate(140.528970 45.851232) rotate(208.895489) scale(27.595571 13.037853)"><ellipse fill="#5e732d" fill-opacity=".501961" cx="0" cy="0" rx="1" ry="1" /></g><ellipse fill="#dedadb" fill-opacity=".501961" cx="147" cy="11" rx="11" ry="20" /></g></svg>