<svg xmlns="http://www.w3.org/2000/svg" viewBox="0 0 3792 5688"><filter id="b"><feGaussianBlur stdDeviation="12" /></filter><path d="M0 0h3792v5688H0z" fill="#959896" /><g filter="url(#b)" transform="scale(22.218750) translate(0.5 0.5)"><g transform="translate(73.518282 28.227334) rotate(-2.231945) scale(59.188863 79.366208)"><ellipse fill="#fff" fill-opacity=".501961" cx="0" cy="0" rx="1" ry="1" /></g><g transform="translate(15.137395 108.891529) rotate(156.885789) scale(37.385083 74.383755)"><ellipse fill="#080d00" fill-opacity=".501961" cx="0" cy="0" rx="1" ry="1" /></g><g transform="translate(152.662720 77.806837) rotate(352.267156) scale(38.586541 22.437167)"><ellipse fill="#000" fill-opacity=".501961" cx="0" cy="0" rx="1" ry="1" /></g><ellipse fill="#fff" fill-opacity=".501961" cx="77" cy="44" rx="54" ry="54" /><ellipse fill="#e5e0e1" fill-opacity=".501961" cx="68" cy="218" rx="49" ry="49" /><g transform="translate(8.572810 172.318575) rotate(181.090386) scale(13.068178 122.185473)"><ellipse fill="#141600" fill-opacity=".501961" cx="0" cy="0" rx="1" ry="1" /></g><g transform="translate(151.250011 212.434594) rotate(188.699488) scale(31.161860 62.301065)"><ellipse fill="#2e3751" fill-opacity=".501961" cx="0" cy="0" rx="1" ry="1" /></g><ellipse fill="#000" fill-opacity=".501961" cx="164" cy="9" rx="29" ry="29" /></g></svg>