<svg xmlns="http://www.w3.org/2000/svg" viewBox="0 0 5618 3160"><filter id="b"><feGaussianBlur stdDeviation="12" /></filter><path d="M0 0h5618v3160H0z" fill="#777d7a" /><g filter="url(#b)" transform="scale(21.945312) translate(0.5 0.5)"><g transform="translate(132.229237 114.914613) rotate(268.829928) scale(37.774347 250.477299)"><ellipse fill="#040000" fill-opacity=".501961" cx="0" cy="0" rx="1" ry="1" /></g><ellipse fill="#e6f9ff" fill-opacity=".501961" cx="92" cy="31" rx="255" ry="37" /><g transform="translate(156.518871 69.605447) rotate(347.600897) scale(66.576994 34.923257)"><ellipse fill="#928980" fill-opacity=".501961" cx="0" cy="0" rx="1" ry="1" /></g><g transform="translate(229.168661 132.884053) rotate(114.065787) scale(54.018846 48.488832)"><ellipse fill="#000100" fill-opacity=".501961" cx="0" cy="0" rx="1" ry="1" /></g><ellipse fill="#000" fill-opacity=".501961" cx="163" cy="35" rx="5" ry="111" /><g transform="translate(9.071139 109.499036) rotate(148.489401) scale(23.979424 53.492593)"><ellipse fill="#101200" fill-opacity=".501961" cx="0" cy="0" rx="1" ry="1" /></g><ellipse fill="#928578" fill-opacity=".501961" cx="72" cy="84" rx="47" ry="18" /><ellipse fill="#cde2eb" fill-opacity=".501961" cx="121" cy="25" rx="37" ry="37" /></g></svg>