<svg xmlns="http://www.w3.org/2000/svg" viewBox="0 0 5418 3612"><filter id="b"><feGaussianBlur stdDeviation="12" /></filter><path d="M0 0h5418v3612H0z" fill="#45636f" /><g filter="url(#b)" transform="scale(21.164062) translate(0.5 0.5)"><ellipse fill="#fffffd" fill-opacity=".501961" cx="19" cy="128" rx="43" ry="43" /><g transform="translate(89.859624 88.399982) rotate(314.146145) scale(73.050697 37.748187)"><ellipse fill="#7da8b8" fill-opacity=".501961" cx="0" cy="0" rx="1" ry="1" /></g><ellipse fill="#002c56" fill-opacity=".501961" cx="141" cy="16" rx="254" ry="37" /><g transform="translate(78.853959 159.309974) rotate(119.592840) scale(20.545105 40.063493)"><ellipse fill="#031a04" fill-opacity=".501961" cx="0" cy="0" rx="1" ry="1" /></g><ellipse fill="#2f2814" fill-opacity=".501961" cx="225" cy="143" rx="55" ry="30" /><ellipse fill="#0876b1" fill-opacity=".501961" cx="18" cy="73" rx="48" ry="39" /><g transform="translate(47.864107 110.748583) rotate(170.605992) scale(49.071941 23.349405)"><ellipse fill="#c7d9cc" fill-opacity=".501961" cx="0" cy="0" rx="1" ry="1" /></g><g transform="translate(129.632960 44.642879) rotate(-12.695921) scale(58.134547 17.093558)"><ellipse fill="#569ac4" fill-opacity=".501961" cx="0" cy="0" rx="1" ry="1" /></g></g></svg>