<svg xmlns="http://www.w3.org/2000/svg" viewBox="0 0 6000 3375"><filter id="b"><feGaussianBlur stdDeviation="12" /></filter><path d="M0 0h6e3v3375H0z" fill="#709784" /><g filter="url(#b)" transform="scale(23.437500) translate(0.5 0.5)"><g transform="translate(111.982641 12.694325) rotate(86.283477) scale(47.900157 219.924491)"><ellipse fill="#f9ffff" fill-opacity=".501961" cx="0" cy="0" rx="1" ry="1" /></g><ellipse fill="#024018" fill-opacity=".501961" cx="79" cy="143" rx="86" ry="86" /><g transform="translate(143.777762 138.281447) rotate(440.010502) scale(38.588156 135.577016)"><ellipse fill="#003812" fill-opacity=".501961" cx="0" cy="0" rx="1" ry="1" /></g><g transform="translate(93.226759 67.306635) rotate(278.149388) scale(20.564895 50.616058)"><ellipse fill="#a7c1b5" fill-opacity=".501961" cx="0" cy="0" rx="1" ry="1" /></g><ellipse fill="#175131" fill-opacity=".501961" cx="11" cy="113" rx="47" ry="47" /><g transform="translate(224.256071 143.000000) rotate(171.289180) scale(167.117386 69.083589)"><ellipse fill="#32603d" fill-opacity=".501961" cx="0" cy="0" rx="1" ry="1" /></g><ellipse fill="#c4e5e8" fill-opacity=".501961" cx="107" cy="0" rx="57" ry="57" /><g transform="translate(228.037636 134.069932) rotate(162.880335) scale(90.425268 18.201057)"><ellipse fill="#094026" fill-opacity=".501961" cx="0" cy="0" rx="1" ry="1" /></g></g></svg>