<svg xmlns="http://www.w3.org/2000/svg" viewBox="0 0 2667 4000"><filter id="b"><feGaussianBlur stdDeviation="12" /></filter><path d="M0 0h2667v4e3H0z" fill="#646468" /><g filter="url(#b)" transform="scale(15.625000) translate(0.5 0.5)"><g transform="translate(130.068173 71.799062) rotate(273.835410) scale(19.958876 35.564986)"><ellipse fill="#d8e2ea" fill-opacity=".501961" cx="0" cy="0" rx="1" ry="1" /></g><ellipse fill="#0f2130" fill-opacity=".501961" cx="48" cy="164" rx="53" ry="53" /><g transform="translate(114.759635 189.051275) rotate(243.077444) scale(28.807341 40.755790)"><ellipse fill="#101518" fill-opacity=".501961" cx="0" cy="0" rx="1" ry="1" /></g><g transform="translate(54.988881 0.000000) rotate(282.718661) scale(19.011280 32.315822)"><ellipse fill="#d5e5fa" fill-opacity=".501961" cx="0" cy="0" rx="1" ry="1" /></g><path d="M0 0h2667v4e3H0z" fill="#ccd4e2" /><g transform="translate(50.561587 51.512444) rotate(77.303596) scale(16.562548 95.157528)"><ellipse fill="#28150e" fill-opacity=".501961" cx="0" cy="0" rx="1" ry="1" /></g><path fill="#b19e89" fill-opacity=".501961" d="M-16 180l67 91 135-20z" /><ellipse fill="#a3b2ca" fill-opacity=".501961" cx="125" cy="126" rx="36" ry="19" /></g></svg>