<svg xmlns="http://www.w3.org/2000/svg" viewBox="0 0 4000 6000"><filter id="b"><feGaussianBlur stdDeviation="12" /></filter><path d="M0 0h4e3v6e3H0z" fill="#404b37" /><g filter="url(#b)" transform="scale(23.437500) translate(0.5 0.5)"><g transform="translate(153.010662 15.646717) rotate(255.729025) scale(56.294020 41.206701)"><ellipse fill="#fffffd" fill-opacity=".501961" cx="0" cy="0" rx="1" ry="1" /></g><ellipse fill="#000200" fill-opacity=".501961" cx="142" cy="233" rx="42" ry="67" /><path fill="#c5e27b" fill-opacity=".501961" d="M155 81 48 78 170 35z" /><ellipse fill="#e1f1ff" fill-opacity=".501961" cx="132" cy="0" rx="75" ry="16" /><ellipse fill="#03051b" fill-opacity=".501961" cx="22" cy="74" rx="33" ry="52" /><ellipse fill="#16280f" fill-opacity=".501961" cx="126" cy="140" rx="63" ry="63" /><g transform="translate(10 8) rotate(186) scale(24 36)"><path d="M0 0h4e3v6e3H0z" fill="#93c3ed" /></g><g transform="translate(22.958810 168.517545) rotate(233.719347) scale(23.810022 56.509876)"><ellipse fill="#0b0f1e" fill-opacity=".501961" cx="0" cy="0" rx="1" ry="1" /></g></g></svg>