<svg xmlns="http://www.w3.org/2000/svg" viewBox="0 0 4000 6000"><filter id="b"><feGaussianBlur stdDeviation="12" /></filter><path d="M0 0h4e3v6e3H0z" fill="#2e3f4d" /><g filter="url(#b)" transform="scale(23.437500) translate(0.5 0.5)"><g transform="translate(143.533082 63.839645) rotate(208.045776) scale(37.523189 52.600455)"><ellipse fill="#c1b496" fill-opacity=".501961" cx="0" cy="0" rx="1" ry="1" /></g><ellipse fill="#8e724d" fill-opacity=".501961" cx="116" cy="238" rx="58" ry="58" /><g transform="translate(95.145925 160.852715) rotate(77.989410) scale(26.660118 112.532008)"><ellipse fill="#00001a" fill-opacity=".501961" cx="0" cy="0" rx="1" ry="1" /></g><g transform="translate(85.859262 66.895566) rotate(97.286430) scale(17.870336 63.019711)"><ellipse fill="#000b4d" fill-opacity=".501961" cx="0" cy="0" rx="1" ry="1" /></g><g transform="translate(25.513622 84.163237) rotate(179.900420) scale(55.426359 113.663190)"><ellipse fill="#00225a" fill-opacity=".501961" cx="0" cy="0" rx="1" ry="1" /></g><ellipse fill="#d6b591" fill-opacity=".501961" cx="145" cy="45" rx="47" ry="15" /><g transform="translate(141.515353 90.170315) rotate(255.125565) scale(9.591356 51.902193)"><ellipse fill="#d8c9a1" fill-opacity=".501961" cx="0" cy="0" rx="1" ry="1" /></g><ellipse fill="#171417" fill-opacity=".501961" cx="69" cy="235" rx="34" ry="15" /></g></svg>