<svg xmlns="http://www.w3.org/2000/svg" viewBox="0 0 4865 2737"><filter id="b"><feGaussianBlur stdDeviation="12" /></filter><path d="M0 0h4865v2737H0z" fill="#81857f" /><g filter="url(#b)" transform="scale(19.003906) translate(0.5 0.5)"><g transform="translate(119.411384 130.540614) rotate(-3.864255) scale(188.086309 39.342821)"><ellipse fill="#00000a" fill-opacity=".501961" cx="0" cy="0" rx="1" ry="1" /></g><ellipse fill="#fff2ba" fill-opacity=".501961" cx="162" cy="69" rx="203" ry="18" /><g transform="translate(122.669695 14.058375) rotate(2.055212) scale(215.919577 27.591639)"><ellipse fill="#b7e3e5" fill-opacity=".501961" cx="0" cy="0" rx="1" ry="1" /></g><g transform="translate(28.500966 119.053682) rotate(270.868458) scale(31.441208 29.792461)"><ellipse fill="#141f12" fill-opacity=".501961" cx="0" cy="0" rx="1" ry="1" /></g><ellipse fill="#919c97" fill-opacity=".501961" cx="195" cy="116" rx="45" ry="10" /><g transform="translate(74.605677 102.474557) rotate(273.113702) scale(5.498717 47.403913)"><ellipse fill="#9399a2" fill-opacity=".501961" cx="0" cy="0" rx="1" ry="1" /></g><ellipse fill="#ffc297" fill-opacity=".501961" cx="70" cy="73" rx="214" ry="15" /><g transform="translate(231.952024 143.000000) rotate(264.169377) scale(25.046700 28.752531)"><ellipse fill="#001013" fill-opacity=".501961" cx="0" cy="0" rx="1" ry="1" /></g></g></svg>