<svg xmlns="http://www.w3.org/2000/svg" viewBox="0 0 4000 6000"><filter id="b"><feGaussianBlur stdDeviation="12" /></filter><path d="M0 0h4e3v6e3H0z" fill="#4c6d69" /><g filter="url(#b)" transform="scale(23.437500) translate(0.5 0.5)"><g transform="translate(57 53) rotate(232) scale(85 118)"><path d="M0 0h4e3v6e3H0z" fill="#e2e7d3" /></g><g transform="translate(62.015269 244.397374) rotate(486.163675) scale(46.654756 166.505030)"><ellipse fill="#000" fill-opacity=".501961" cx="0" cy="0" rx="1" ry="1" /></g><ellipse fill="#000" fill-opacity=".501961" cx="155" cy="213" rx="18" ry="43" /><g transform="translate(106.585713 171.955779) rotate(127.140190) scale(20.270859 40.837280)"><ellipse fill="#aef0e4" fill-opacity=".501961" cx="0" cy="0" rx="1" ry="1" /></g><path d="M0 0h4e3v6e3H0z" fill="#a5bba3" /><ellipse fill="#000d11" fill-opacity=".501961" cx="145" cy="5" rx="37" ry="28" /><g transform="translate(32.520415 53.919291) rotate(350.224165) scale(38.468176 11.935565)"><ellipse fill="#fff" fill-opacity=".501961" cx="0" cy="0" rx="1" ry="1" /></g><g transform="translate(132.513141 112.372630) rotate(347.954713) scale(18.440721 71.552495)"><ellipse fill="#0c363e" fill-opacity=".501961" cx="0" cy="0" rx="1" ry="1" /></g></g></svg>