<svg xmlns="http://www.w3.org/2000/svg" viewBox="0 0 4000 6000"><filter id="b"><feGaussianBlur stdDeviation="12" /></filter><path d="M0 0h4e3v6e3H0z" fill="#2a5b6f" /><g filter="url(#b)" transform="scale(23.437500) translate(0.5 0.5)"><ellipse fill="#94340e" fill-opacity=".501961" cx="87" cy="240" rx="88" ry="88" /><g transform="translate(169.000000 219.412213) rotate(120.368661) scale(11.909267 44.630050)"><ellipse fill="#ffd4c6" fill-opacity=".501961" cx="0" cy="0" rx="1" ry="1" /></g><ellipse fill="#007db4" fill-opacity=".501961" cx="57" cy="43" rx="169" ry="88" /><g transform="translate(70.558536 199.549227) rotate(348.581042) scale(56.489743 15.358393)"><ellipse fill="#000007" fill-opacity=".501961" cx="0" cy="0" rx="1" ry="1" /></g><ellipse fill="#000608" fill-opacity=".501961" cx="108" cy="246" rx="37" ry="18" /><g transform="translate(82.105594 221.672706) rotate(167.999828) scale(41.825798 9.422954)"><ellipse fill="#e68a5d" fill-opacity=".501961" cx="0" cy="0" rx="1" ry="1" /></g><ellipse fill="#ffbf9f" fill-opacity=".501961" cx="66" cy="162" rx="21" ry="7" /><g transform="translate(14.498325 143.414558) rotate(21.171283) scale(26.243972 131.447978)"><ellipse fill="#00547c" fill-opacity=".501961" cx="0" cy="0" rx="1" ry="1" /></g></g></svg>