<svg xmlns="http://www.w3.org/2000/svg" viewBox="0 0 3985 5978"><filter id="b"><feGaussianBlur stdDeviation="12" /></filter><path d="M0 0h3985v5978H0z" fill="#56656b" /><g filter="url(#b)" transform="scale(23.351562) translate(0.5 0.5)"><g transform="translate(88.633595 20.052461) rotate(96.603734) scale(20.436900 65.121412)"><ellipse fill="#fff" fill-opacity=".501961" cx="0" cy="0" rx="1" ry="1" /></g><ellipse fill="#050d1f" fill-opacity=".501961" cx="81" cy="184" rx="56" ry="56" /><ellipse fill="#cfffff" fill-opacity=".501961" cx="95" cy="255" rx="169" ry="10" /><g transform="translate(48.891810 71.801451) rotate(290.007858) scale(45.654984 12.936856)"><ellipse fill="#ffad8e" fill-opacity=".501961" cx="0" cy="0" rx="1" ry="1" /></g><g transform="translate(169.000000 144.151360) rotate(178.749272) scale(22.427218 77.760509)"><ellipse fill="#00071f" fill-opacity=".501961" cx="0" cy="0" rx="1" ry="1" /></g><g transform="translate(154.753256 37.475044) rotate(207.939031) scale(155.111111 11.684095)"><ellipse fill="#e5fffc" fill-opacity=".501961" cx="0" cy="0" rx="1" ry="1" /></g><g transform="translate(157 1) rotate(31) scale(108 39)"><path d="M0 0h3985v5978H0z" fill="#000" /></g><g transform="translate(9.675627 254.036891) rotate(9.189922) scale(11.042681 66.459261)"><ellipse fill="#aaecd7" fill-opacity=".501961" cx="0" cy="0" rx="1" ry="1" /></g></g></svg>