<svg xmlns="http://www.w3.org/2000/svg" viewBox="0 0 2990 4484"><filter id="b"><feGaussianBlur stdDeviation="12" /></filter><path d="M0 0h2990v4484H0z" fill="#1e1d19" /><g filter="url(#b)" transform="scale(17.515625) translate(0.5 0.5)"><g transform="translate(92.137614 149.403806) rotate(52.234022) scale(24.187092 43.793571)"><ellipse fill="#adb1a3" fill-opacity=".501961" cx="0" cy="0" rx="1" ry="1" /></g><path d="M0 0h2990v4484H0z" fill="#c3e2e8" /><ellipse fill="#7cb559" fill-opacity=".501961" cx="18" cy="106" rx="19" ry="19" /><g transform="translate(88 242) rotate(172) scale(170 91)"><path d="M0 0h2990v4484H0z" fill="#030000" /></g><ellipse fill="#000" fill-opacity=".501961" cx="73" cy="14" rx="133" ry="37" /><g transform="translate(99.837529 166.524317) rotate(179.580045) scale(30.476958 6.367017)"><ellipse fill="#fccc9a" fill-opacity=".501961" cx="0" cy="0" rx="1" ry="1" /></g><ellipse fill="#55a0b7" fill-opacity=".501961" cx="89" cy="125" rx="22" ry="8" /><g transform="translate(135.882115 142.300824) rotate(110.431913) scale(27.758387 21.479574)"><ellipse fill="#342621" fill-opacity=".501961" cx="0" cy="0" rx="1" ry="1" /></g></g></svg>