<svg xmlns="http://www.w3.org/2000/svg" viewBox="0 0 2497 3745"><filter id="b"><feGaussianBlur stdDeviation="12" /></filter><path d="M0 0h2497v3745H0z" fill="#a8a49e" /><g filter="url(#b)" transform="scale(14.628906) translate(0.5 0.5)"><ellipse fill="#1d0e00" fill-opacity=".501961" cx="40" cy="240" rx="109" ry="109" /><ellipse fill="#fff" fill-opacity=".501961" cx="97" cy="48" rx="107" ry="107" /><g transform="translate(170.000000 196.153193) rotate(96.716709) scale(54.645405 50.362844)"><ellipse fill="#48361f" fill-opacity=".501961" cx="0" cy="0" rx="1" ry="1" /></g><ellipse fill="#020203" fill-opacity=".501961" cx="10" cy="159" rx="42" ry="42" /><g transform="translate(81.562011 32.618068) rotate(219.548443) scale(143.611553 82.810605)"><ellipse fill="#fbfdff" fill-opacity=".501961" cx="0" cy="0" rx="1" ry="1" /></g><g transform="translate(65 160) rotate(17) scale(67 15)"><path d="M0 0h2497v3745H0z" fill="#000" /></g><g transform="translate(100.129051 247.885028) rotate(251.873926) scale(61.416243 132.765500)"><ellipse fill="#847460" fill-opacity=".501961" cx="0" cy="0" rx="1" ry="1" /></g><path fill="#e2d7c8" fill-opacity=".501961" d="M54 174l-70-2V153z" /></g></svg>