<svg xmlns="http://www.w3.org/2000/svg" viewBox="0 0 6000 4000"><filter id="b"><feGaussianBlur stdDeviation="12" /></filter><path d="M0 0h6e3v4e3H0z" fill="#4b442c" /><g filter="url(#b)" transform="scale(23.437500) translate(0.5 0.5)"><g transform="translate(234.899869 154.874300) rotate(411.510339) scale(29.538301 21.213281)"><ellipse fill="#ffff8e" fill-opacity=".501961" cx="0" cy="0" rx="1" ry="1" /></g><g transform="translate(104.138697 87.914875) rotate(265.835743) scale(27.364661 42.762464)"><ellipse fill="#d48c6a" fill-opacity=".501961" cx="0" cy="0" rx="1" ry="1" /></g><g transform="translate(197 123) rotate(298) scale(73 58)"><path d="M0 0h6e3v4e3H0z" fill="#608391" /></g><g transform="translate(16.949409 129.136306) rotate(261.886263) scale(66.226239 48.483632)"><ellipse fill="#1b0900" fill-opacity=".501961" cx="0" cy="0" rx="1" ry="1" /></g><g transform="translate(57.730296 11.259854) rotate(220.823151) scale(68.763338 21.660158)"><ellipse fill="#000021" fill-opacity=".501961" cx="0" cy="0" rx="1" ry="1" /></g><path fill="#d5a0c3" fill-opacity=".501961" d="M1e2-16 122 1 59 28z" /><ellipse fill="#1a1c00" fill-opacity=".501961" cx="244" cy="56" rx="42" ry="42" /><g transform="translate(155.511551 75.895306) rotate(78.261415) scale(49.069475 16.637506)"><ellipse fill="#001a3a" fill-opacity=".501961" cx="0" cy="0" rx="1" ry="1" /></g></g></svg>