<svg xmlns="http://www.w3.org/2000/svg" viewBox="0 0 5839 3893"><filter id="b"><feGaussianBlur stdDeviation="12" /></filter><path d="M0 0h5839v3893H0z" fill="#2f3936" /><g filter="url(#b)" transform="scale(22.808594) translate(0.5 0.5)"><ellipse fill="#e1fff1" fill-opacity=".501961" cx="217" cy="65" rx="39" ry="39" /><g transform="translate(136.628716 69.471718) rotate(176.567739) scale(146.002120 19.866515)"><ellipse fill="#f3ffff" fill-opacity=".501961" cx="0" cy="0" rx="1" ry="1" /></g><ellipse fill="#000" fill-opacity=".501961" cx="196" cy="14" rx="255" ry="25" /><g transform="translate(161.750587 137.217776) rotate(87.081871) scale(47.631691 227.473809)"><ellipse fill="#000" fill-opacity=".501961" cx="0" cy="0" rx="1" ry="1" /></g><g transform="translate(155.127636 61.063236) rotate(-7.901337) scale(142.780302 15.458212)"><ellipse fill="#c4f1d8" fill-opacity=".501961" cx="0" cy="0" rx="1" ry="1" /></g><g transform="translate(90.088323 35.693753) rotate(69.819868) scale(16.489872 58.235542)"><ellipse fill="#000" fill-opacity=".501961" cx="0" cy="0" rx="1" ry="1" /></g><g transform="translate(78.280947 30.749278) rotate(446.661202) scale(20.878708 184.997929)"><ellipse fill="#000" fill-opacity=".501961" cx="0" cy="0" rx="1" ry="1" /></g><g transform="translate(231.266651 56.833671) rotate(253.270608) scale(19.499947 117.483559)"><ellipse fill="#a4c0b1" fill-opacity=".501961" cx="0" cy="0" rx="1" ry="1" /></g></g></svg>