<svg xmlns="http://www.w3.org/2000/svg" viewBox="0 0 5963 3354"><filter id="b"><feGaussianBlur stdDeviation="12" /></filter><path d="M0 0h5963v3354H0z" fill="#655d45" /><g filter="url(#b)" transform="scale(23.292969) translate(0.5 0.5)"><g transform="translate(97.402411 11.681400) rotate(118.426595) scale(110.362526 88.010111)"><ellipse fill="#c0c3b6" fill-opacity=".501961" cx="0" cy="0" rx="1" ry="1" /></g><ellipse fill="#000" fill-opacity=".501961" cx="232" cy="66" rx="34" ry="142" /><g transform="translate(86.735194 134.337150) rotate(356.483816) scale(255.000000 21.338341)"><ellipse fill="#2f0000" fill-opacity=".501961" cx="0" cy="0" rx="1" ry="1" /></g><ellipse fill="#d3d5de" fill-opacity=".501961" cx="121" cy="28" rx="57" ry="18" /><ellipse fill="#000" fill-opacity=".501961" cx="162" cy="37" rx="3" ry="89" /><g transform="translate(7.074122 111.964675) rotate(156.044165) scale(22.658593 32.762857)"><ellipse fill="#000a00" fill-opacity=".501961" cx="0" cy="0" rx="1" ry="1" /></g><g transform="translate(240.538904 61.784124) rotate(168.853408) scale(37.084987 101.640601)"><ellipse fill="#000100" fill-opacity=".501961" cx="0" cy="0" rx="1" ry="1" /></g><ellipse fill="#93792b" fill-opacity=".501961" cx="127" cy="73" rx="34" ry="34" /></g></svg>