<svg xmlns="http://www.w3.org/2000/svg" viewBox="0 0 3270 4905"><filter id="b"><feGaussianBlur stdDeviation="12" /></filter><path d="M0 0h3270v4905H0z" fill="#859f93" /><g filter="url(#b)" transform="scale(19.160156) translate(0.5 0.5)"><ellipse fill="#041d0a" fill-opacity=".501961" cx="107" cy="202" rx="167" ry="77" /><g transform="translate(87.884169 52.779294) rotate(86.494340) scale(72.497521 169.000000)"><ellipse fill="#fff" fill-opacity=".501961" cx="0" cy="0" rx="1" ry="1" /></g><ellipse fill="#d8fff6" fill-opacity=".501961" cx="76" cy="16" rx="96" ry="96" /><path fill="#001513" fill-opacity=".501961" d="M103.880963 156.106484 95.679469 108.880113 92.03451 101.262511 81.259448 120.425552z" /><g transform="translate(124 155) rotate(186) scale(44 17)"><path d="M0 0h3270v4905H0z" fill="#b7d0bd" /></g><g transform="translate(147.277496 255.000000) rotate(80.565734) scale(47.776650 26.084613)"><ellipse fill="#041a15" fill-opacity=".501961" cx="0" cy="0" rx="1" ry="1" /></g><g transform="translate(29.910317 188.712472) rotate(218.047984) scale(35.000388 19.984377)"><ellipse fill="#7a907f" fill-opacity=".501961" cx="0" cy="0" rx="1" ry="1" /></g><g transform="translate(17.275043 247.913092) rotate(229.458326) scale(16.642802 10.484784)"><ellipse fill="#000102" fill-opacity=".501961" cx="0" cy="0" rx="1" ry="1" /></g></g></svg>