<svg xmlns="http://www.w3.org/2000/svg" viewBox="0 0 6000 4000"><filter id="b"><feGaussianBlur stdDeviation="12" /></filter><path d="M0 0h6e3v4e3H0z" fill="#5c4f37" /><g filter="url(#b)" transform="scale(23.437500) translate(0.5 0.5)"><g transform="translate(106.107424 73.724236) rotate(196.042664) scale(35.119321 43.092383)"><ellipse fill="#ffffe7" fill-opacity=".501961" cx="0" cy="0" rx="1" ry="1" /></g><ellipse fill="#000" fill-opacity=".501961" cx="21" cy="70" rx="55" ry="55" /><ellipse fill="#ff8913" fill-opacity=".501961" cx="161" cy="90" rx="27" ry="43" /><g transform="translate(231.560862 19.726156) rotate(37.953599) scale(10.061441 52.073184)"><ellipse fill="#fafce6" fill-opacity=".501961" cx="0" cy="0" rx="1" ry="1" /></g><g transform="translate(89 49) rotate(300) scale(22 57)"><path d="M0 0h6e3v4e3H0z" fill="#eff6e8" /></g><g transform="translate(94.386822 92.381644) rotate(225.465654) scale(11.901970 49.396824)"><ellipse fill="#f5fbeb" fill-opacity=".501961" cx="0" cy="0" rx="1" ry="1" /></g><path fill="#082122" fill-opacity=".501961" d="M270 166 136 185 261 18z" /><g transform="translate(44.770999 169.000000) rotate(24.478791) scale(81.065231 33.918137)"><ellipse fill="#210800" fill-opacity=".501961" cx="0" cy="0" rx="1" ry="1" /></g></g></svg>