<svg xmlns="http://www.w3.org/2000/svg" viewBox="0 0 5651 3767"><filter id="b"><feGaussianBlur stdDeviation="12" /></filter><path d="M0 0h5651v3767H0z" fill="#5f7383" /><g filter="url(#b)" transform="scale(22.074219) translate(0.5 0.5)"><g transform="translate(79.774940 65.847659) rotate(53.258535) scale(63.929177 52.046112)"><ellipse fill="#7fbdef" fill-opacity=".501961" cx="0" cy="0" rx="1" ry="1" /></g><ellipse fill="#2b1c15" fill-opacity=".501961" cx="226" cy="169" rx="90" ry="90" /><ellipse fill="#fffff8" fill-opacity=".501961" cx="213" cy="30" rx="9" ry="99" /><ellipse fill="#f7faff" fill-opacity=".501961" cx="56" cy="68" rx="50" ry="10" /><ellipse fill="#247adc" fill-opacity=".501961" cx="109" cy="13" rx="54" ry="54" /><g transform="translate(8.107344 25.045217) rotate(110.725012) scale(44.887135 21.376068)"><ellipse fill="#281000" fill-opacity=".501961" cx="0" cy="0" rx="1" ry="1" /></g><g transform="translate(101.289387 120.588217) rotate(101.401195) scale(51.030998 31.934849)"><ellipse fill="#bdb4a0" fill-opacity=".501961" cx="0" cy="0" rx="1" ry="1" /></g><g transform="translate(249.812771 103.057536) rotate(178.986565) scale(23.890870 172.120213)"><ellipse fill="#222423" fill-opacity=".501961" cx="0" cy="0" rx="1" ry="1" /></g></g></svg>