<svg xmlns="http://www.w3.org/2000/svg" viewBox="0 0 3733 5599"><filter id="b"><feGaussianBlur stdDeviation="12" /></filter><path d="M0 0h3733v5599H0z" fill="#747c7e" /><g filter="url(#b)" transform="scale(21.871094) translate(0.5 0.5)"><ellipse fill="#fff" fill-opacity=".501961" cx="158" cy="68" rx="92" ry="92" /><ellipse fill="#000" fill-opacity=".501961" cx="132" cy="233" rx="169" ry="60" /><g transform="translate(0.000000 31.264535) rotate(124.212349) scale(43.040298 100.016758)"><ellipse fill="#000" fill-opacity=".501961" cx="0" cy="0" rx="1" ry="1" /></g><g transform="translate(24.805985 130.831458) rotate(7.306430) scale(60.941240 34.482303)"><ellipse fill="#fff" fill-opacity=".501961" cx="0" cy="0" rx="1" ry="1" /></g><g transform="translate(141.931632 67.995742) rotate(380.733857) scale(35.582750 95.100344)"><ellipse fill="#ecfeff" fill-opacity=".501961" cx="0" cy="0" rx="1" ry="1" /></g><path d="M0 0h3733v5599H0z" fill="#fff" /><ellipse fill="#040d06" fill-opacity=".501961" cx="83" cy="224" rx="170" ry="36" /><g transform="translate(90 113) rotate(112) scale(17 22)"><path d="M0 0h3733v5599H0z" fill="#000" /></g></g></svg>