<svg xmlns="http://www.w3.org/2000/svg" viewBox="0 0 5432 3622"><filter id="b"><feGaussianBlur stdDeviation="12" /></filter><path d="M0 0h5432v3622H0z" fill="#434943" /><g filter="url(#b)" transform="scale(21.218750) translate(0.5 0.5)"><ellipse fill="#e5d8c7" fill-opacity=".501961" cx="115" cy="43" rx="39" ry="55" /><g transform="translate(80.268834 82.473468) rotate(248.468140) scale(35.406447 24.107044)"><ellipse fill="#d2cdba" fill-opacity=".501961" cx="0" cy="0" rx="1" ry="1" /></g><ellipse fill="#000" fill-opacity=".501961" cx="243" cy="119" rx="99" ry="99" /><ellipse fill="#c6bcb3" fill-opacity=".501961" cx="135" cy="0" rx="41" ry="41" /><g transform="translate(142.570184 68.291810) rotate(124.515004) scale(53.169826 20.211499)"><ellipse fill="#4a3d32" fill-opacity=".501961" cx="0" cy="0" rx="1" ry="1" /></g><g transform="translate(64.453528 11.010409) rotate(44.034498) scale(33.949536 17.872054)"><ellipse fill="#000b0b" fill-opacity=".501961" cx="0" cy="0" rx="1" ry="1" /></g><ellipse fill="#000d00" fill-opacity=".501961" cx="229" cy="127" rx="56" ry="68" /><g transform="translate(110.028148 7.774076) rotate(291.781912) scale(44.258427 13.522570)"><ellipse fill="#d2d9e9" fill-opacity=".501961" cx="0" cy="0" rx="1" ry="1" /></g></g></svg>