<svg xmlns="http://www.w3.org/2000/svg" viewBox="0 0 5618 3160"><filter id="b"><feGaussianBlur stdDeviation="12" /></filter><path d="M0 0h5618v3160H0z" fill="#777d7a" /><g filter="url(#b)" transform="scale(21.945312) translate(0.5 0.5)"><ellipse fill="#020000" fill-opacity=".501961" cx="148" cy="119" rx="255" ry="42" /><ellipse fill="#e8f5fb" fill-opacity=".501961" cx="75" cy="13" rx="84" ry="84" /><g transform="translate(216.791370 27.430403) rotate(19.142859) scale(51.242863 37.801275)"><ellipse fill="#e1f5ff" fill-opacity=".501961" cx="0" cy="0" rx="1" ry="1" /></g><g transform="translate(96.122007 79.654876) rotate(82.957018) scale(20.616371 82.978842)"><ellipse fill="#746151" fill-opacity=".501961" cx="0" cy="0" rx="1" ry="1" /></g><g transform="translate(227.455813 119.044908) rotate(54.067338) scale(38.505685 46.152663)"><ellipse fill="#000200" fill-opacity=".501961" cx="0" cy="0" rx="1" ry="1" /></g><ellipse fill="#8f867c" fill-opacity=".501961" cx="150" cy="85" rx="53" ry="22" /><g transform="translate(13.981818 96.845993) rotate(53.881196) scale(33.996513 13.251787)"><ellipse fill="#000" fill-opacity=".501961" cx="0" cy="0" rx="1" ry="1" /></g><ellipse fill="#c7dbe0" fill-opacity=".501961" cx="84" cy="27" rx="75" ry="40" /></g></svg>