<svg xmlns="http://www.w3.org/2000/svg" viewBox="0 0 4000 6000"><filter id="b"><feGaussianBlur stdDeviation="12" /></filter><path d="M0 0h4e3v6e3H0z" fill="#8a7b65" /><g filter="url(#b)" transform="scale(23.437500) translate(0.5 0.5)"><ellipse fill="#fcf1e0" fill-opacity=".501961" cx="91" cy="83" rx="55" ry="55" /><g transform="translate(81.268403 218.667744) rotate(359.111152) scale(47.783318 31.154390)"><ellipse fill="#000" fill-opacity=".501961" cx="0" cy="0" rx="1" ry="1" /></g><g transform="translate(12.724889 13.148119) rotate(261.786419) scale(30.331964 80.446320)"><ellipse fill="#000" fill-opacity=".501961" cx="0" cy="0" rx="1" ry="1" /></g><g transform="translate(60.723556 104.715853) rotate(287.103201) scale(29.206558 58.050194)"><ellipse fill="#d8d4be" fill-opacity=".501961" cx="0" cy="0" rx="1" ry="1" /></g><path fill="#eee4b6" fill-opacity=".501961" d="M-1 133l115 29-30 26z" /><g transform="translate(132.129656 13.319272) rotate(158.737716) scale(7.734073 44.261848)"><ellipse fill="#000" fill-opacity=".501961" cx="0" cy="0" rx="1" ry="1" /></g><ellipse fill="#000" fill-opacity=".501961" cx="0" cy="34" rx="19" ry="43" /><g transform="translate(42.769373 134.180256) rotate(195.722591) scale(61.186251 5.096050)"><ellipse fill="#000" fill-opacity=".501961" cx="0" cy="0" rx="1" ry="1" /></g></g></svg>