<svg xmlns="http://www.w3.org/2000/svg" viewBox="0 0 4000 6000"><filter id="b"><feGaussianBlur stdDeviation="12" /></filter><path d="M0 0h4e3v6e3H0z" fill="#627a7c" /><g filter="url(#b)" transform="scale(23.437500) translate(0.5 0.5)"><g transform="translate(112.642333 41.162518) rotate(126.895286) scale(71.338565 169.000000)"><ellipse fill="#e2ffff" fill-opacity=".501961" cx="0" cy="0" rx="1" ry="1" /></g><ellipse fill="#000100" fill-opacity=".501961" cx="41" cy="211" rx="118" ry="118" /><ellipse fill="#e6ffff" fill-opacity=".501961" cx="160" cy="160" rx="21" ry="32" /><ellipse fill="#000600" fill-opacity=".501961" cx="125" cy="236" rx="57" ry="57" /><g transform="translate(14.038257 56.069448) rotate(329.483900) scale(53.133388 27.100227)"><ellipse fill="#cef3ff" fill-opacity=".501961" cx="0" cy="0" rx="1" ry="1" /></g><ellipse fill="#b8bdcb" fill-opacity=".501961" cx="129" cy="126" rx="31" ry="49" /><g transform="translate(22.244529 192.608695) rotate(187.085642) scale(9.426961 29.185636)"><ellipse fill="#bed1b7" fill-opacity=".501961" cx="0" cy="0" rx="1" ry="1" /></g><g transform="translate(53.168221 115.496857) rotate(-141.975834) scale(40.190210 36.379800)"><ellipse fill="#04230e" fill-opacity=".501961" cx="0" cy="0" rx="1" ry="1" /></g></g></svg>