<svg xmlns="http://www.w3.org/2000/svg" viewBox="0 0 4000 6000"><filter id="b"><feGaussianBlur stdDeviation="12" /></filter><path d="M0 0h4e3v6e3H0z" fill="#72685a" /><g filter="url(#b)" transform="scale(23.437500) translate(0.5 0.5)"><g transform="translate(48.176243 40.613588) rotate(303.510401) scale(49.916744 65.756330)"><ellipse fill="#fff" fill-opacity=".501961" cx="0" cy="0" rx="1" ry="1" /></g><g transform="translate(145.023690 69.340137) rotate(271.931894) scale(131.193398 37.900907)"><ellipse fill="#000" fill-opacity=".501961" cx="0" cy="0" rx="1" ry="1" /></g><g transform="translate(56.016644 41.114138) rotate(136.038467) scale(36.547483 70.959479)"><ellipse fill="#fff" fill-opacity=".501961" cx="0" cy="0" rx="1" ry="1" /></g><ellipse fill="#593d1c" fill-opacity=".501961" cx="27" cy="216" rx="155" ry="102" /><ellipse fill="#fcffff" fill-opacity=".501961" cx="13" cy="35" rx="93" ry="39" /><path fill="#2e4648" fill-opacity=".501961" d="M-16 197 25 66l91 74z" /><g transform="translate(85.069519 178.871873) rotate(365.126494) scale(33.995108 8.291966)"><ellipse fill="#f1b686" fill-opacity=".501961" cx="0" cy="0" rx="1" ry="1" /></g><g transform="translate(134.129385 6.791337) rotate(95.572029) scale(15.131348 52.813629)"><ellipse fill="#000" fill-opacity=".501961" cx="0" cy="0" rx="1" ry="1" /></g></g></svg>