<svg xmlns="http://www.w3.org/2000/svg" viewBox="0 0 4000 6000"><filter id="b"><feGaussianBlur stdDeviation="12" /></filter><path d="M0 0h4e3v6e3H0z" fill="#7a736f" /><g filter="url(#b)" transform="scale(23.437500) translate(0.5 0.5)"><g transform="translate(77.303147 70.961398) rotate(173.264157) scale(108.000069 17.881612)"><ellipse fill="#000002" fill-opacity=".501961" cx="0" cy="0" rx="1" ry="1" /></g><ellipse fill="#c2c2bf" fill-opacity=".501961" cx="112" cy="255" rx="77" ry="77" /><path d="M0 0h4e3v6e3H0z" fill="#3c0000" /><g transform="translate(62.843718 117.021172) rotate(349.983249) scale(41.912062 15.693347)"><ellipse fill="#c47601" fill-opacity=".501961" cx="0" cy="0" rx="1" ry="1" /></g><g transform="translate(16.594503 207.353010) rotate(129.298168) scale(36.584036 103.507047)"><ellipse fill="#b0b1ad" fill-opacity=".501961" cx="0" cy="0" rx="1" ry="1" /></g><g transform="translate(162.605444 147.578778) rotate(258.567080) scale(74.624415 25.561732)"><ellipse fill="#b5b8b4" fill-opacity=".501961" cx="0" cy="0" rx="1" ry="1" /></g><g transform="translate(77.869801 159.251017) rotate(-2.755690) scale(57.652813 26.278504)"><ellipse fill="#35514d" fill-opacity=".501961" cx="0" cy="0" rx="1" ry="1" /></g><g transform="translate(58.320860 0.000000) rotate(86.468599) scale(11.751330 62.457022)"><ellipse fill="#3b0006" fill-opacity=".501961" cx="0" cy="0" rx="1" ry="1" /></g></g></svg>