<svg xmlns="http://www.w3.org/2000/svg" viewBox="0 0 5277 3518"><filter id="b"><feGaussianBlur stdDeviation="12" /></filter><path d="M0 0h5277v3518H0z" fill="#5f7078" /><g filter="url(#b)" transform="scale(20.613281) translate(0.5 0.5)"><g transform="translate(128.647827 134.985764) rotate(272.565647) scale(38.624410 223.090707)"><ellipse fill="#fffffb" fill-opacity=".501961" cx="0" cy="0" rx="1" ry="1" /></g><ellipse fill="#000023" fill-opacity=".501961" cx="103" cy="0" rx="105" ry="105" /><ellipse fill="#000001" fill-opacity=".501961" cx="255" cy="39" rx="75" ry="50" /><ellipse fill="#00051b" fill-opacity=".501961" cx="27" cy="54" rx="40" ry="40" /><g transform="translate(147.136471 123.830973) rotate(367.315979) scale(171.003277 23.542400)"><ellipse fill="#ffffe1" fill-opacity=".501961" cx="0" cy="0" rx="1" ry="1" /></g><ellipse fill="#002e56" fill-opacity=".501961" cx="134" cy="0" rx="100" ry="100" /><g transform="translate(66.748828 167.355734) rotate(272.115359) scale(27.793026 121.791299)"><ellipse fill="#887475" fill-opacity=".501961" cx="0" cy="0" rx="1" ry="1" /></g><g transform="translate(255.000000 38.573110) rotate(-17.241029) scale(41.445830 69.995386)"><ellipse fill="#000a21" fill-opacity=".501961" cx="0" cy="0" rx="1" ry="1" /></g></g></svg>