<svg xmlns="http://www.w3.org/2000/svg" viewBox="0 0 3300 4950"><filter id="b"><feGaussianBlur stdDeviation="12" /></filter><path d="M0 0h33e2v4950H0z" fill="#4a4254" /><g filter="url(#b)" transform="scale(19.335938) translate(0.5 0.5)"><g transform="translate(29.044739 66.889915) rotate(379.562429) scale(81.298599 39.770038)"><ellipse fill="#a699cb" fill-opacity=".501961" cx="0" cy="0" rx="1" ry="1" /></g><g transform="translate(72.979216 200.693962) rotate(263.969890) scale(101.760479 29.022155)"><ellipse fill="#000" fill-opacity=".501961" cx="0" cy="0" rx="1" ry="1" /></g><g transform="translate(0.000000 4.664711) rotate(183.677387) scale(25.598711 46.523824)"><ellipse fill="#a49bea" fill-opacity=".501961" cx="0" cy="0" rx="1" ry="1" /></g><g transform="translate(160.655860 230.220489) rotate(222.216353) scale(25.122927 168.330189)"><ellipse fill="#000" fill-opacity=".501961" cx="0" cy="0" rx="1" ry="1" /></g><ellipse fill="#ad9594" fill-opacity=".501961" cx="129" cy="208" rx="24" ry="24" /><g transform="translate(8.559428 144.627968) rotate(70.955965) scale(6.857521 29.008347)"><ellipse fill="#e3ceff" fill-opacity=".501961" cx="0" cy="0" rx="1" ry="1" /></g><g transform="translate(25.940907 234.630348) rotate(183.760483) scale(89.692469 53.369656)"><ellipse fill="#1c170a" fill-opacity=".501961" cx="0" cy="0" rx="1" ry="1" /></g><path d="M0 0h33e2v4950H0z" fill="#fff" /></g></svg>