<svg xmlns="http://www.w3.org/2000/svg" viewBox="0 0 3716 5574"><filter id="b"><feGaussianBlur stdDeviation="12" /></filter><path d="M0 0h3716v5574H0z" fill="#414f5b" /><g filter="url(#b)" transform="scale(21.773438) translate(0.5 0.5)"><g transform="translate(12.904007 238.639662) rotate(268.956797) scale(41.172293 17.472492)"><ellipse fill="#e3bbff" fill-opacity=".501961" cx="0" cy="0" rx="1" ry="1" /></g><g transform="translate(133.986764 255.000000) rotate(257.906128) scale(32.054592 169.000000)"><ellipse fill="#40b5de" fill-opacity=".501961" cx="0" cy="0" rx="1" ry="1" /></g><g transform="translate(87.843081 146.880883) rotate(177.107974) scale(49.485034 91.776492)"><ellipse fill="#201f0c" fill-opacity=".501961" cx="0" cy="0" rx="1" ry="1" /></g><g transform="translate(160.681768 28.337444) rotate(217.810399) scale(49.972730 19.464504)"><ellipse fill="#15bece" fill-opacity=".501961" cx="0" cy="0" rx="1" ry="1" /></g><g transform="translate(51.745271 57.264746) rotate(206.413838) scale(14.299275 38.425147)"><ellipse fill="#f49e63" fill-opacity=".501961" cx="0" cy="0" rx="1" ry="1" /></g><g transform="translate(16.489547 12.554148) rotate(340.469639) scale(69.386564 21.327262)"><ellipse fill="#0095b6" fill-opacity=".501961" cx="0" cy="0" rx="1" ry="1" /></g><path fill="#b23658" fill-opacity=".501961" d="M162.007826 120.218461 134.346806 142.860398 120.463767 39.826142 161.45877 109.369737z" /><path d="M0 0h3716v5574H0z" fill="#8cd0e9" /></g></svg>