<svg xmlns="http://www.w3.org/2000/svg" viewBox="0 0 2921 4382"><filter id="b"><feGaussianBlur stdDeviation="12" /></filter><path d="M0 0h2921v4382H0z" fill="#6c5567" /><g filter="url(#b)" transform="scale(17.117188) translate(0.5 0.5)"><g transform="translate(94.645891 229.478299) rotate(126.937513) scale(166.912128 50.040713)"><ellipse fill="#ccb6c8" fill-opacity=".501961" cx="0" cy="0" rx="1" ry="1" /></g><ellipse fill="#0d0001" fill-opacity=".501961" cx="100" cy="18" rx="84" ry="84" /><g transform="translate(64.605185 161.332153) rotate(50.196355) scale(42.451944 26.658088)"><ellipse fill="#0d040f" fill-opacity=".501961" cx="0" cy="0" rx="1" ry="1" /></g><ellipse fill="#c7a7aa" fill-opacity=".501961" cx="27" cy="247" rx="56" ry="56" /><ellipse fill="#c8acc1" fill-opacity=".501961" cx="129" cy="118" rx="70" ry="16" /><g transform="translate(28.399963 179.676950) rotate(-7.054516) scale(53.035526 12.348423)"><ellipse fill="#000" fill-opacity=".501961" cx="0" cy="0" rx="1" ry="1" /></g><path fill="#000" fill-opacity=".501961" d="M116 125 60 158l36-43z" /><g transform="translate(48.200048 71.863763) rotate(145.081073) scale(29.141320 27.098111)"><ellipse fill="#956190" fill-opacity=".501961" cx="0" cy="0" rx="1" ry="1" /></g></g></svg>