<svg xmlns="http://www.w3.org/2000/svg" viewBox="0 0 6000 4000"><filter id="b"><feGaussianBlur stdDeviation="12" /></filter><path d="M0 0h6e3v4e3H0z" fill="#8c8173" /><g filter="url(#b)" transform="scale(23.437500) translate(0.5 0.5)"><g transform="translate(238.009363 6.233210) rotate(-30.265838) scale(30.963682 57.358714)"><ellipse fill="#000" fill-opacity=".501961" cx="0" cy="0" rx="1" ry="1" /></g><g transform="translate(183.719279 35.241447) rotate(219.406034) scale(117.204022 22.395151)"><ellipse fill="#fff" fill-opacity=".501961" cx="0" cy="0" rx="1" ry="1" /></g><g transform="translate(213.635217 103.252608) rotate(123.993363) scale(12.890286 71.071046)"><ellipse fill="#000510" fill-opacity=".501961" cx="0" cy="0" rx="1" ry="1" /></g><ellipse fill="#00363e" fill-opacity=".501961" cx="61" cy="151" rx="37" ry="34" /><ellipse fill="#793e19" fill-opacity=".501961" cx="38" cy="18" rx="43" ry="43" /><g transform="translate(99.457679 0.000000) rotate(304.145149) scale(17.524161 52.946866)"><ellipse fill="#fff6ba" fill-opacity=".501961" cx="0" cy="0" rx="1" ry="1" /></g><g transform="translate(140 129) rotate(24) scale(142 23)"><path d="M0 0h6e3v4e3H0z" fill="#f7e1cf" /></g><ellipse fill="#000" fill-opacity=".501961" cx="239" cy="0" rx="43" ry="31" /></g></svg>