<svg xmlns="http://www.w3.org/2000/svg" viewBox="0 0 3985 5978"><filter id="b"><feGaussianBlur stdDeviation="12" /></filter><path d="M0 0h3985v5978H0z" fill="#56656b" /><g filter="url(#b)" transform="scale(23.351562) translate(0.5 0.5)"><g transform="translate(87.300281 20.898304) rotate(185.798939) scale(69.140151 21.233919)"><ellipse fill="#fff" fill-opacity=".501961" cx="0" cy="0" rx="1" ry="1" /></g><g transform="translate(106.711719 168.348599) rotate(49.996570) scale(49.818637 99.523890)"><ellipse fill="#0e1226" fill-opacity=".501961" cx="0" cy="0" rx="1" ry="1" /></g><g transform="translate(85.615857 255.000000) rotate(358.294492) scale(164.138281 9.104461)"><ellipse fill="#cdffff" fill-opacity=".501961" cx="0" cy="0" rx="1" ry="1" /></g><path fill="#ffac8e" fill-opacity=".501961" d="M52 22 18 142 78 54z" /><g transform="translate(157 6) rotate(28) scale(95 30)"><path d="M0 0h3985v5978H0z" fill="#000" /></g><ellipse fill="#a9f8f6" fill-opacity=".501961" cx="151" cy="44" rx="20" ry="20" /><g transform="translate(13.939143 255.000000) rotate(271.753830) scale(72.673404 14.228791)"><ellipse fill="#94dece" fill-opacity=".501961" cx="0" cy="0" rx="1" ry="1" /></g><g transform="translate(123.298783 96.621806) rotate(250.519586) scale(74.359667 22.060496)"><ellipse fill="#876d6b" fill-opacity=".501961" cx="0" cy="0" rx="1" ry="1" /></g></g></svg>