<svg xmlns="http://www.w3.org/2000/svg" viewBox="0 0 5854 3903"><filter id="b"><feGaussianBlur stdDeviation="12" /></filter><path d="M0 0h5854v3903H0z" fill="#626c64" /><g filter="url(#b)" transform="scale(22.867188) translate(0.5 0.5)"><g transform="translate(193.329615 0.000000) rotate(185.880116) scale(74.980140 40.016956)"><ellipse fill="#f8ffff" fill-opacity=".501961" cx="0" cy="0" rx="1" ry="1" /></g><g transform="translate(225.332364 104.390288) rotate(85.804118) scale(28.886001 42.410570)"><ellipse fill="#b5dfe3" fill-opacity=".501961" cx="0" cy="0" rx="1" ry="1" /></g><g transform="translate(81.372469 53.062598) rotate(12.110583) scale(90.541074 55.847579)"><ellipse fill="#061f24" fill-opacity=".501961" cx="0" cy="0" rx="1" ry="1" /></g><g transform="translate(161.607863 141.553763) rotate(99.687615) scale(31.350863 86.689241)"><ellipse fill="#d79c57" fill-opacity=".501961" cx="0" cy="0" rx="1" ry="1" /></g><ellipse fill="#111400" fill-opacity=".501961" cx="39" cy="165" rx="170" ry="15" /><ellipse fill="#dad9d4" fill-opacity=".501961" cx="153" cy="118" rx="172" ry="9" /><g transform="translate(220.097185 77.141029) rotate(266.895512) scale(15.362512 56.607606)"><ellipse fill="#1088d7" fill-opacity=".501961" cx="0" cy="0" rx="1" ry="1" /></g><g transform="translate(48 62) rotate(183) scale(25 29)"><path d="M0 0h5854v3903H0z" fill="#eeafbf" /></g></g></svg>