<svg xmlns="http://www.w3.org/2000/svg" viewBox="0 0 2922 4383"><filter id="b"><feGaussianBlur stdDeviation="12" /></filter><path d="M0 0h2922v4383H0z" fill="#d3241b" /><g filter="url(#b)" transform="scale(17.121094) translate(0.5 0.5)"><ellipse fill="#000" fill-opacity=".501961" cx="161" cy="0" rx="33" ry="33" /><g transform="translate(10.445224 245.779067) rotate(290.542173) scale(28.705117 32.724754)"><ellipse fill="#47a24d" fill-opacity=".501961" cx="0" cy="0" rx="1" ry="1" /></g><g transform="translate(25.778031 156.925890) rotate(138.626643) scale(54.016955 99.553721)"><ellipse fill="#ff4c35" fill-opacity=".501961" cx="0" cy="0" rx="1" ry="1" /></g><g transform="translate(89.800269 6.006256) rotate(123.473851) scale(25.575428 152.991519)"><ellipse fill="#9f0000" fill-opacity=".501961" cx="0" cy="0" rx="1" ry="1" /></g><g transform="translate(91.552035 85.715436) rotate(146.114583) scale(22.465496 31.746294)"><ellipse fill="#eb7a37" fill-opacity=".501961" cx="0" cy="0" rx="1" ry="1" /></g><path d="M0 0h2922v4383H0z" fill="#c9b0a0" /><ellipse fill="#000b0f" fill-opacity=".501961" cx="165" cy="0" rx="26" ry="23" /><ellipse fill="#a10000" fill-opacity=".501961" cx="11" cy="13" rx="132" ry="19" /></g></svg>