<svg xmlns="http://www.w3.org/2000/svg" viewBox="0 0 3042 4562"><filter id="b"><feGaussianBlur stdDeviation="12" /></filter><path d="M0 0h3042v4562H0z" fill="#989891" /><g filter="url(#b)" transform="scale(17.820312) translate(0.5 0.5)"><g transform="translate(112.095923 204.657473) rotate(3.808872) scale(166.574944 58.541896)"><ellipse fill="#191700" fill-opacity=".501961" cx="0" cy="0" rx="1" ry="1" /></g><g transform="translate(79.648488 51.900497) rotate(86.784409) scale(94.275290 170.000000)"><ellipse fill="#fbfeff" fill-opacity=".501961" cx="0" cy="0" rx="1" ry="1" /></g><g transform="translate(122.882606 181.525720) rotate(-9.210454) scale(106.644630 15.456353)"><ellipse fill="#ab9484" fill-opacity=".501961" cx="0" cy="0" rx="1" ry="1" /></g><g transform="translate(99.307399 231.068781) rotate(266.223001) scale(25.304942 53.712203)"><ellipse fill="#1a2900" fill-opacity=".501961" cx="0" cy="0" rx="1" ry="1" /></g><g transform="translate(136.900497 151.728922) rotate(84.277549) scale(10.721132 37.965025)"><ellipse fill="#363536" fill-opacity=".501961" cx="0" cy="0" rx="1" ry="1" /></g><ellipse fill="#fffbf6" fill-opacity=".501961" cx="116" cy="105" rx="145" ry="15" /><path d="M0 0h3042v4562H0z" fill="#ae9689" /><path d="M0 0h3042v4562H0z" fill="#1c232d" /></g></svg>