<svg xmlns="http://www.w3.org/2000/svg" viewBox="0 0 5848 3899"><filter id="b"><feGaussianBlur stdDeviation="12" /></filter><path d="M0 0h5848v3899H0z" fill="#3b2e4e" /><g filter="url(#b)" transform="scale(22.843750) translate(0.5 0.5)"><path fill="#9d4eff" fill-opacity=".501961" d="M103 110l17-64L-16 57z" /><g transform="translate(230.309212 71.163128) rotate(275.790176) scale(19.376379 44.774698)"><ellipse fill="#06ff8a" fill-opacity=".501961" cx="0" cy="0" rx="1" ry="1" /></g><ellipse fill="#f0f" fill-opacity=".501961" cx="168" cy="94" rx="25" ry="16" /><g transform="translate(110.585594 1.447007) rotate(98.408973) scale(31.022389 215.483119)"><ellipse fill="#021200" fill-opacity=".501961" cx="0" cy="0" rx="1" ry="1" /></g><g transform="translate(163.351849 161.611714) rotate(160.965643) scale(255.000000 40.669955)"><ellipse fill="#17160c" fill-opacity=".501961" cx="0" cy="0" rx="1" ry="1" /></g><path fill="#34ffd7" fill-opacity=".501961" d="M184.506477 12.211824 213.815152-16H193.747287L178.684096 3.298371z" /><g transform="translate(82.550143 86.755273) rotate(58.456004) scale(13.496391 38.461470)"><ellipse fill="#9d53ee" fill-opacity=".501961" cx="0" cy="0" rx="1" ry="1" /></g><ellipse fill="#632240" fill-opacity=".501961" cx="112" cy="118" rx="55" ry="25" /></g></svg>