<svg xmlns="http://www.w3.org/2000/svg" viewBox="0 0 2659 3988"><filter id="b"><feGaussianBlur stdDeviation="12" /></filter><path d="M0 0h2659v3988H0z" fill="#678783" /><g filter="url(#b)" transform="scale(15.578125) translate(0.5 0.5)"><g transform="translate(90.067123 221.689802) rotate(-6.137555) scale(169.663625 54.750609)"><ellipse fill="#000" fill-opacity=".501961" cx="0" cy="0" rx="1" ry="1" /></g><g transform="translate(111.581314 97.556764) rotate(171.724094) scale(161.883486 59.409537)"><ellipse fill="#bee7de" fill-opacity=".501961" cx="0" cy="0" rx="1" ry="1" /></g><g transform="translate(43.244883 35.135483) rotate(269.360502) scale(98.589258 63.528958)"><ellipse fill="#77adaa" fill-opacity=".501961" cx="0" cy="0" rx="1" ry="1" /></g><g transform="translate(50.527385 246.722275) rotate(38.075239) scale(144.899550 33.243792)"><ellipse fill="#101c17" fill-opacity=".501961" cx="0" cy="0" rx="1" ry="1" /></g><ellipse fill="#577171" fill-opacity=".501961" cx="137" cy="210" rx="56" ry="25" /><ellipse fill="#dae8dd" fill-opacity=".501961" cx="106" cy="83" rx="20" ry="20" /><ellipse fill="#a3c7c0" fill-opacity=".501961" cx="170" cy="51" rx="51" ry="51" /><ellipse fill="#d2dccd" fill-opacity=".501961" cx="32" cy="144" rx="108" ry="11" /></g></svg>