<svg xmlns="http://www.w3.org/2000/svg" viewBox="0 0 3987 5980"><filter id="b"><feGaussianBlur stdDeviation="12" /></filter><path d="M0 0h3987v5980H0z" fill="#8c9288" /><g filter="url(#b)" transform="scale(23.359375) translate(0.5 0.5)"><g transform="translate(82.637906 22.102506) rotate(90.515416) scale(42.615896 164.807580)"><ellipse fill="#fff" fill-opacity=".501961" cx="0" cy="0" rx="1" ry="1" /></g><g transform="translate(131.346111 92.109961) rotate(-83.042660) scale(27.753758 66.876246)"><ellipse fill="#000b01" fill-opacity=".501961" cx="0" cy="0" rx="1" ry="1" /></g><ellipse fill="#051a06" fill-opacity=".501961" cx="88" cy="251" rx="90" ry="27" /><g transform="translate(16.920452 101.167798) rotate(300.026158) scale(81.401641 21.766704)"><ellipse fill="#474535" fill-opacity=".501961" cx="0" cy="0" rx="1" ry="1" /></g><g transform="translate(108.987705 28.659552) rotate(108.011748) scale(25.882654 103.473410)"><ellipse fill="#fff" fill-opacity=".501961" cx="0" cy="0" rx="1" ry="1" /></g><ellipse fill="#454b44" fill-opacity=".501961" cx="66" cy="188" rx="15" ry="122" /><g transform="translate(13.798497 56.060708) rotate(186.778859) scale(16.182271 12.850305)"><ellipse fill="#fff" fill-opacity=".501961" cx="0" cy="0" rx="1" ry="1" /></g><ellipse fill="#022d1e" fill-opacity=".501961" cx="6" cy="89" rx="22" ry="19" /></g></svg>