<svg xmlns="http://www.w3.org/2000/svg" viewBox="0 0 6000 4000"><filter id="b"><feGaussianBlur stdDeviation="12" /></filter><path d="M0 0h6e3v4e3H0z" fill="#8c8173" /><g filter="url(#b)" transform="scale(23.437500) translate(0.5 0.5)"><g transform="translate(201.502589 42.251241) rotate(315.225898) scale(18.542546 110.291326)"><ellipse fill="#fff" fill-opacity=".501961" cx="0" cy="0" rx="1" ry="1" /></g><g transform="translate(236.749503 6.565619) rotate(-35.279371) scale(30.542085 72.493721)"><ellipse fill="#000" fill-opacity=".501961" cx="0" cy="0" rx="1" ry="1" /></g><g transform="translate(35.706844 169.000000) rotate(99.113660) scale(52.653127 14.617007)"><ellipse fill="#000004" fill-opacity=".501961" cx="0" cy="0" rx="1" ry="1" /></g><g transform="translate(220.206457 108.112067) rotate(215.711381) scale(77.413451 13.136065)"><ellipse fill="#000811" fill-opacity=".501961" cx="0" cy="0" rx="1" ry="1" /></g><g transform="translate(138.559920 6.542221) rotate(117.177324) scale(33.574468 73.271802)"><ellipse fill="#ffe5c9" fill-opacity=".501961" cx="0" cy="0" rx="1" ry="1" /></g><g transform="translate(132.445452 129.257309) rotate(110.781683) scale(13.209386 103.270038)"><ellipse fill="#edd5c1" fill-opacity=".501961" cx="0" cy="0" rx="1" ry="1" /></g><g transform="translate(42.872711 23.614543) rotate(196.565245) scale(86.829562 26.041371)"><ellipse fill="#7a4121" fill-opacity=".501961" cx="0" cy="0" rx="1" ry="1" /></g><g transform="translate(235.606924 15.420363) rotate(116.356633) scale(19.749300 47.641445)"><ellipse fill="#000" fill-opacity=".501961" cx="0" cy="0" rx="1" ry="1" /></g></g></svg>