<svg xmlns="http://www.w3.org/2000/svg" viewBox="0 0 6000 4000"><filter id="b"><feGaussianBlur stdDeviation="12" /></filter><path d="M0 0h6e3v4e3H0z" fill="#473f34" /><g filter="url(#b)" transform="scale(23.437500) translate(0.5 0.5)"><g transform="translate(27.642687 146.235102) rotate(394.035702) scale(89.578594 45.017662)"><ellipse fill="#ffffc8" fill-opacity=".501961" cx="0" cy="0" rx="1" ry="1" /></g><ellipse fill="#ff8e3e" fill-opacity=".501961" cx="120" cy="97" rx="46" ry="20" /><ellipse fill="#000002" fill-opacity=".501961" cx="98" cy="9" rx="64" ry="64" /><g transform="translate(241.880116 134.936719) rotate(49.157162) scale(58.694867 90.160069)"><ellipse fill="#000008" fill-opacity=".501961" cx="0" cy="0" rx="1" ry="1" /></g><g transform="translate(78 106) rotate(158) scale(148 24)"><path d="M0 0h6e3v4e3H0z" fill="#f08b59" /></g><ellipse fill="#0d1413" fill-opacity=".501961" cx="23" cy="33" rx="105" ry="59" /><g transform="translate(98.467588 121.586816) rotate(246.225530) scale(18.621551 27.042018)"><ellipse fill="#0f1913" fill-opacity=".501961" cx="0" cy="0" rx="1" ry="1" /></g><ellipse fill="#ebddb7" fill-opacity=".501961" cx="3" cy="141" rx="30" ry="50" /></g></svg>