<svg xmlns="http://www.w3.org/2000/svg" viewBox="0 0 5489 3659"><filter id="b"><feGaussianBlur stdDeviation="12" /></filter><path d="M0 0h5489v3659H0z" fill="#564a37" /><g filter="url(#b)" transform="scale(21.441406) translate(0.5 0.5)"><g transform="translate(105.191815 78.375343) rotate(337.179505) scale(79.303367 38.524518)"><ellipse fill="#fe9336" fill-opacity=".501961" cx="0" cy="0" rx="1" ry="1" /></g><g transform="translate(131.652313 157.189985) rotate(-4.145898) scale(184.903931 38.595519)"><ellipse fill="#000224" fill-opacity=".501961" cx="0" cy="0" rx="1" ry="1" /></g><ellipse fill="#268cb8" fill-opacity=".501961" cx="45" cy="124" rx="81" ry="18" /><ellipse fill="#fffcab" fill-opacity=".501961" cx="103" cy="76" rx="43" ry="12" /><path fill="#ffffe0" fill-opacity=".501961" d="M224 80 265 5 155 120z" /><g transform="translate(141.318352 77.323689) rotate(188.585120) scale(31.025928 21.027496)"><ellipse fill="#ff6a00" fill-opacity=".501961" cx="0" cy="0" rx="1" ry="1" /></g><g transform="translate(118.769101 115.139087) rotate(377.999783) scale(52.492769 20.559241)"><ellipse fill="#10373f" fill-opacity=".501961" cx="0" cy="0" rx="1" ry="1" /></g><ellipse fill="#001312" fill-opacity=".501961" cx="255" cy="146" rx="73" ry="73" /></g></svg>