<svg xmlns="http://www.w3.org/2000/svg" viewBox="0 0 3831 5747"><filter id="b"><feGaussianBlur stdDeviation="12" /></filter><path d="M0 0h3831v5747H0z" fill="#626753" /><g filter="url(#b)" transform="scale(22.449219) translate(0.5 0.5)"><g transform="translate(59.431819 139.712586) rotate(263.844323) scale(17.271256 148.398596)"><ellipse fill="#fff" fill-opacity=".501961" cx="0" cy="0" rx="1" ry="1" /></g><g transform="translate(56.032419 199.934781) rotate(173.888391) scale(99.516630 39.280822)"><ellipse fill="#3a2821" fill-opacity=".501961" cx="0" cy="0" rx="1" ry="1" /></g><g transform="translate(111.299342 17.687621) rotate(370.239900) scale(111.179827 50.526633)"><ellipse fill="#1f3628" fill-opacity=".501961" cx="0" cy="0" rx="1" ry="1" /></g><ellipse fill="#fff" fill-opacity=".501961" cx="23" cy="142" rx="39" ry="18" /><g transform="translate(110.525881 251.538108) rotate(265.632453) scale(25.584249 87.113209)"><ellipse fill="#d0825f" fill-opacity=".501961" cx="0" cy="0" rx="1" ry="1" /></g><ellipse fill="#143820" fill-opacity=".501961" cx="70" cy="103" rx="86" ry="15" /><ellipse fill="#b4eb62" fill-opacity=".501961" cx="71" cy="79" rx="144" ry="6" /><path d="M0 0h3831v5747H0z" fill="#e4f5ff" /></g></svg>