<svg xmlns="http://www.w3.org/2000/svg" viewBox="0 0 6000 4000"><filter id="b"><feGaussianBlur stdDeviation="12" /></filter><path d="M0 0h6e3v4e3H0z" fill="#857f72" /><g filter="url(#b)" transform="scale(23.437500) translate(0.5 0.5)"><ellipse fill="#112118" fill-opacity=".501961" cx="67" cy="124" rx="255" ry="29" /><g transform="translate(157.681972 32.626632) rotate(91.413951) scale(28.903693 239.450276)"><ellipse fill="#eaddcc" fill-opacity=".501961" cx="0" cy="0" rx="1" ry="1" /></g><g transform="translate(4.025459 107.847773) rotate(132.511575) scale(28.853455 59.727549)"><ellipse fill="#081400" fill-opacity=".501961" cx="0" cy="0" rx="1" ry="1" /></g><g transform="translate(104.137579 68.091973) rotate(91.660217) scale(43.065917 110.895842)"><ellipse fill="#96867a" fill-opacity=".501961" cx="0" cy="0" rx="1" ry="1" /></g><path d="M0 0h6e3v4e3H0z" fill="#000c00" /><ellipse fill="#fff" fill-opacity=".501961" cx="141" cy="6" rx="226" ry="4" /><ellipse fill="#c9bcab" fill-opacity=".501961" cx="191" cy="49" rx="41" ry="41" /><ellipse fill="#595e57" fill-opacity=".501961" cx="211" cy="122" rx="128" ry="32" /></g></svg>