<svg xmlns="http://www.w3.org/2000/svg" viewBox="0 0 3532 5299"><filter id="b"><feGaussianBlur stdDeviation="12" /></filter><path d="M0 0h3532v5299H0z" fill="#63686a" /><g filter="url(#b)" transform="scale(20.699219) translate(0.5 0.5)"><ellipse fill="#fff" fill-opacity=".501961" cx="91" cy="44" rx="64" ry="64" /><g transform="translate(25.630418 217.332450) rotate(369.634632) scale(169.000000 73.470695)"><ellipse fill="#000" fill-opacity=".501961" cx="0" cy="0" rx="1" ry="1" /></g><g transform="translate(8.841468 81.989685) rotate(0.896408) scale(13.614426 146.222878)"><ellipse fill="#040b00" fill-opacity=".501961" cx="0" cy="0" rx="1" ry="1" /></g><ellipse fill="#e8fcff" fill-opacity=".501961" cx="108" cy="52" rx="35" ry="67" /><ellipse fill="#9a8f82" fill-opacity=".501961" cx="80" cy="139" rx="48" ry="48" /><g transform="translate(59.367332 51.686733) rotate(245.744257) scale(17.560360 7.351354)"><ellipse fill="#041112" fill-opacity=".501961" cx="0" cy="0" rx="1" ry="1" /></g><path d="M0 0h3532v5299H0z" fill="#000" /><g transform="translate(31.156395 44.065646) rotate(309.786805) scale(23.188966 14.290282)"><ellipse fill="#2f383f" fill-opacity=".501961" cx="0" cy="0" rx="1" ry="1" /></g></g></svg>