<svg xmlns="http://www.w3.org/2000/svg" viewBox="0 0 4000 6000"><filter id="b"><feGaussianBlur stdDeviation="12" /></filter><path d="M0 0h4e3v6e3H0z" fill="#788b63" /><g filter="url(#b)" transform="scale(23.437500) translate(0.5 0.5)"><g transform="translate(141 99) rotate(197) scale(92 85)"><path d="M0 0h4e3v6e3H0z" fill="#c5c6b9" /></g><ellipse fill="#223b00" fill-opacity=".501961" cx="83" cy="157" rx="28" ry="28" /><g transform="translate(3.232649 42.328620) rotate(157.416736) scale(30.222143 19.093489)"><ellipse fill="#002e05" fill-opacity=".501961" cx="0" cy="0" rx="1" ry="1" /></g><g transform="translate(82.028296 35.707506) rotate(63.513459) scale(65.396419 24.944614)"><ellipse fill="#5e7817" fill-opacity=".501961" cx="0" cy="0" rx="1" ry="1" /></g><ellipse fill="#d7d3c5" fill-opacity=".501961" cx="169" cy="10" rx="32" ry="32" /><g transform="translate(169.000000 209.809291) rotate(251.176987) scale(25.228939 9.446765)"><ellipse fill="#000012" fill-opacity=".501961" cx="0" cy="0" rx="1" ry="1" /></g><g transform="translate(103 241) rotate(324) scale(28 27)"><path d="M0 0h4e3v6e3H0z" fill="#00372f" /></g><g transform="translate(23.687316 86.558443) rotate(111.337428) scale(23.904790 17.377457)"><ellipse fill="#9bbeb4" fill-opacity=".501961" cx="0" cy="0" rx="1" ry="1" /></g></g></svg>