<svg xmlns="http://www.w3.org/2000/svg" viewBox="0 0 6000 4000"><filter id="b"><feGaussianBlur stdDeviation="12" /></filter><path d="M0 0h6e3v4e3H0z" fill="#71734f" /><g filter="url(#b)" transform="scale(23.437500) translate(0.5 0.5)"><g transform="translate(80.062824 169.000000) rotate(267.607295) scale(47.262201 150.885626)"><ellipse fill="#fdff7f" fill-opacity=".501961" cx="0" cy="0" rx="1" ry="1" /></g><path fill="#000" fill-opacity=".501961" d="M107 101l154 49V108z" /><g transform="translate(27.411082 71.323877) rotate(131.044077) scale(42.217465 16.604314)"><ellipse fill="#000" fill-opacity=".501961" cx="0" cy="0" rx="1" ry="1" /></g><ellipse fill="#d2e4e6" fill-opacity=".501961" cx="110" cy="22" rx="25" ry="25" /><g transform="translate(15 19) rotate(98) scale(46 40)"><path d="M0 0h6e3v4e3H0z" fill="#efeae7" /></g><ellipse fill="#3b320a" fill-opacity=".501961" cx="239" cy="62" rx="71" ry="71" /><ellipse fill="#1c2d49" fill-opacity=".501961" cx="92" cy="84" rx="60" ry="32" /><g transform="translate(158.320140 17.924330) rotate(65.318174) scale(2.788267 35.956197)"><ellipse fill="#f6fffd" fill-opacity=".501961" cx="0" cy="0" rx="1" ry="1" /></g></g></svg>