<svg xmlns="http://www.w3.org/2000/svg" viewBox="0 0 3357 5035"><filter id="b"><feGaussianBlur stdDeviation="12" /></filter><path d="M0 0h3357v5035H0z" fill="#5c7134" /><g filter="url(#b)" transform="scale(19.667969) translate(0.5 0.5)"><ellipse fill="#ff9" fill-opacity=".501961" cx="30" cy="44" rx="88" ry="88" /><ellipse fill="#000" fill-opacity=".501961" cx="118" cy="228" rx="121" ry="121" /><g transform="translate(22.044280 81.413573) rotate(-101.308929) scale(38.782022 52.786107)"><ellipse fill="#ffffca" fill-opacity=".501961" cx="0" cy="0" rx="1" ry="1" /></g><g transform="translate(101.268722 19.450477) rotate(-25.615467) scale(50.588794 78.688438)"><ellipse fill="#9cd232" fill-opacity=".501961" cx="0" cy="0" rx="1" ry="1" /></g><g transform="translate(60 121) rotate(53) scale(24 117)"><path d="M0 0h3357v5035H0z" fill="#76bc25" /></g><g transform="translate(128 129) rotate(253) scale(35 146)"><path d="M0 0h3357v5035H0z" fill="#000111" /></g><ellipse fill="#050e14" fill-opacity=".501961" cx="131" cy="238" rx="140" ry="52" /><g transform="translate(128.472004 24.794410) rotate(35.342706) scale(32.217843 51.366405)"><ellipse fill="#8db13d" fill-opacity=".501961" cx="0" cy="0" rx="1" ry="1" /></g></g></svg>