<svg xmlns="http://www.w3.org/2000/svg" viewBox="0 0 6000 3375"><filter id="b"><feGaussianBlur stdDeviation="12" /></filter><path d="M0 0h6e3v3375H0z" fill="#709784" /><g filter="url(#b)" transform="scale(23.437500) translate(0.5 0.5)"><g transform="translate(122.557034 0.000000) rotate(176.169549) scale(240.225511 59.861098)"><ellipse fill="#f9ffff" fill-opacity=".501961" cx="0" cy="0" rx="1" ry="1" /></g><g transform="translate(109.298542 130.115227) rotate(362.646645) scale(251.600899 44.429840)"><ellipse fill="#002900" fill-opacity=".501961" cx="0" cy="0" rx="1" ry="1" /></g><ellipse fill="#276446" fill-opacity=".501961" cx="22" cy="91" rx="40" ry="26" /><g transform="translate(255.000000 77.498082) rotate(357.080555) scale(61.736770 16.142482)"><ellipse fill="#616e3d" fill-opacity=".501961" cx="0" cy="0" rx="1" ry="1" /></g><ellipse fill="#0a4c2f" fill-opacity=".501961" cx="69" cy="143" rx="255" ry="27" /><ellipse fill="#bedfe2" fill-opacity=".501961" cx="113" cy="0" rx="66" ry="66" /><g transform="translate(144 55) rotate(-1) scale(192 23)"><path d="M0 0h6e3v3375H0z" fill="#94b2b0" /></g><ellipse fill="#bddcdb" fill-opacity=".501961" cx="77" cy="0" rx="175" ry="54" /></g></svg>