<svg xmlns="http://www.w3.org/2000/svg" viewBox="0 0 4000 6000"><filter id="b"><feGaussianBlur stdDeviation="12" /></filter><path d="M0 0h4e3v6e3H0z" fill="#2a5b6f" /><g filter="url(#b)" transform="scale(23.437500) translate(0.5 0.5)"><ellipse fill="#95340c" fill-opacity=".501961" cx="86" cy="242" rx="85" ry="91" /><g transform="translate(161.089591 216.855473) rotate(300.936095) scale(9.214433 40.746066)"><ellipse fill="#ffdcca" fill-opacity=".501961" cx="0" cy="0" rx="1" ry="1" /></g><ellipse fill="#007db3" fill-opacity=".501961" cx="85" cy="18" rx="117" ry="117" /><g transform="translate(69.736484 196.512689) rotate(350.061462) scale(60.477233 17.194347)"><ellipse fill="#00050c" fill-opacity=".501961" cx="0" cy="0" rx="1" ry="1" /></g><g transform="translate(111 255) rotate(257) scale(48 70)"><path d="M0 0h4e3v6e3H0z" fill="#000507" /></g><g transform="translate(69.436435 161.919976) rotate(78.762311) scale(6.462333 32.284760)"><ellipse fill="#fdba9e" fill-opacity=".501961" cx="0" cy="0" rx="1" ry="1" /></g><g transform="translate(70.023381 225.351676) rotate(162.265892) scale(42.103511 10.891870)"><ellipse fill="#d17c57" fill-opacity=".501961" cx="0" cy="0" rx="1" ry="1" /></g><g transform="translate(14.125203 139.922648) rotate(391.614152) scale(30.586607 82.434542)"><ellipse fill="#005079" fill-opacity=".501961" cx="0" cy="0" rx="1" ry="1" /></g></g></svg>