<svg xmlns="http://www.w3.org/2000/svg" viewBox="0 0 6000 4000"><filter id="b"><feGaussianBlur stdDeviation="12" /></filter><path d="M0 0h6e3v4e3H0z" fill="#4b442c" /><g filter="url(#b)" transform="scale(23.437500) translate(0.5 0.5)"><g transform="translate(237.644041 158.662909) rotate(240.855366) scale(33.071988 20.799363)"><ellipse fill="#ffff8f" fill-opacity=".501961" cx="0" cy="0" rx="1" ry="1" /></g><g transform="translate(101.649695 88.372375) rotate(319.221908) scale(43.460444 26.667103)"><ellipse fill="#d09368" fill-opacity=".501961" cx="0" cy="0" rx="1" ry="1" /></g><ellipse fill="#658893" fill-opacity=".501961" cx="198" cy="120" rx="30" ry="41" /><ellipse fill="#200d00" fill-opacity=".501961" cx="6" cy="129" rx="67" ry="67" /><g transform="translate(62.361656 15.814364) rotate(-48.516720) scale(22.465203 65.751560)"><ellipse fill="#000225" fill-opacity=".501961" cx="0" cy="0" rx="1" ry="1" /></g><g transform="translate(94.786852 0.000000) rotate(212.682304) scale(10.133029 18.529793)"><ellipse fill="#ffbfdc" fill-opacity=".501961" cx="0" cy="0" rx="1" ry="1" /></g><g transform="translate(229.193766 55.263907) rotate(228.601881) scale(30.192475 42.169086)"><ellipse fill="#141900" fill-opacity=".501961" cx="0" cy="0" rx="1" ry="1" /></g><g transform="translate(188.038527 4.059713) rotate(72.313130) scale(7.666947 13.618958)"><ellipse fill="#ffd8ab" fill-opacity=".501961" cx="0" cy="0" rx="1" ry="1" /></g></g></svg>