<svg xmlns="http://www.w3.org/2000/svg" viewBox="0 0 5244 2950"><filter id="b"><feGaussianBlur stdDeviation="12" /></filter><path d="M0 0h5244v2950H0z" fill="#7d848a" /><g filter="url(#b)" transform="scale(20.484375) translate(0.5 0.5)"><g transform="translate(228.738466 119.458162) rotate(251.058489) scale(33.987915 55.403262)"><ellipse fill="#000" fill-opacity=".501961" cx="0" cy="0" rx="1" ry="1" /></g><g transform="translate(162.507524 35.470179) rotate(258.079092) scale(31.112034 157.431356)"><ellipse fill="#f1f8f1" fill-opacity=".501961" cx="0" cy="0" rx="1" ry="1" /></g><ellipse fill="#27323c" fill-opacity=".501961" cx="35" cy="115" rx="117" ry="40" /><ellipse fill="#212a2c" fill-opacity=".501961" cx="218" cy="55" rx="30" ry="11" /><g transform="translate(164.059119 45.982731) rotate(149.651058) scale(37.809215 27.355655)"><ellipse fill="#eaefe9" fill-opacity=".501961" cx="0" cy="0" rx="1" ry="1" /></g><g transform="translate(235.045008 122.776061) rotate(240.089187) scale(29.593864 36.087873)"><ellipse fill="#05050d" fill-opacity=".501961" cx="0" cy="0" rx="1" ry="1" /></g><g transform="translate(191.341597 83.228967) rotate(23.263698) scale(9.481224 87.408210)"><ellipse fill="#545659" fill-opacity=".501961" cx="0" cy="0" rx="1" ry="1" /></g><g transform="translate(29.540309 67.359724) rotate(180.585236) scale(136.123617 9.426338)"><ellipse fill="#f0f3d2" fill-opacity=".501961" cx="0" cy="0" rx="1" ry="1" /></g></g></svg>