<svg xmlns="http://www.w3.org/2000/svg" viewBox="0 0 3857 5785"><filter id="b"><feGaussianBlur stdDeviation="12" /></filter><path d="M0 0h3857v5785H0z" fill="#35645d" /><g filter="url(#b)" transform="scale(22.597656) translate(0.5 0.5)"><g transform="translate(82.907053 239.192606) rotate(179.358924) scale(169.345054 20.920698)"><ellipse fill="#4dffff" fill-opacity=".501961" cx="0" cy="0" rx="1" ry="1" /></g><ellipse fill="#aef7f7" fill-opacity=".501961" cx="96" cy="12" rx="44" ry="44" /><path fill="#000" fill-opacity=".501961" d="M117 43-16 153l126 78z" /><g transform="translate(158.549780 76.132225) rotate(265.488144) scale(29.340287 20.957965)"><ellipse fill="#ffc451" fill-opacity=".501961" cx="0" cy="0" rx="1" ry="1" /></g><path fill="#fff" fill-opacity=".501961" d="M19.948147 18.490588 94.870309-16 186 36.307517 107.562565 10.765941z" /><g transform="translate(164.504892 154.088305) rotate(268.772341) scale(50.675997 21.419601)"><ellipse fill="#00000f" fill-opacity=".501961" cx="0" cy="0" rx="1" ry="1" /></g><ellipse fill="#d5ffff" fill-opacity=".501961" cx="32" cy="196" rx="11" ry="11" /><ellipse fill="#000" fill-opacity=".501961" cx="5" cy="7" rx="26" ry="15" /></g></svg>