<svg xmlns="http://www.w3.org/2000/svg" viewBox="0 0 2922 4383"><filter id="b"><feGaussianBlur stdDeviation="12" /></filter><path d="M0 0h2922v4383H0z" fill="#d3241b" /><g filter="url(#b)" transform="scale(17.121094) translate(0.5 0.5)"><g transform="translate(136.710720 0.000000) rotate(180.962317) scale(82.177108 42.836417)"><ellipse fill="#580000" fill-opacity=".501961" cx="0" cy="0" rx="1" ry="1" /></g><g transform="translate(13.695993 255.000000) rotate(236.352959) scale(43.282608 32.614881)"><ellipse fill="#509f4b" fill-opacity=".501961" cx="0" cy="0" rx="1" ry="1" /></g><g transform="translate(32.631192 161.633739) rotate(330.016276) scale(51.950087 76.723389)"><ellipse fill="#ff5038" fill-opacity=".501961" cx="0" cy="0" rx="1" ry="1" /></g><g transform="translate(169 8) rotate(219) scale(107 38)"><path d="M0 0h2922v4383H0z" fill="#000b0f" /></g><g transform="translate(84.346740 69.968702) rotate(245.115978) scale(51.807338 18.382795)"><ellipse fill="#df7443" fill-opacity=".501961" cx="0" cy="0" rx="1" ry="1" /></g><ellipse fill="#c30009" fill-opacity=".501961" cx="129" cy="46" rx="43" ry="30" /><ellipse fill="#ad0000" fill-opacity=".501961" cx="19" cy="7" rx="112" ry="24" /><ellipse fill="#ae0000" fill-opacity=".501961" cx="92" cy="130" rx="33" ry="18" /></g></svg>