<svg xmlns="http://www.w3.org/2000/svg" viewBox="0 0 5489 3659"><filter id="b"><feGaussianBlur stdDeviation="12" /></filter><path d="M0 0h5489v3659H0z" fill="#564a37" /><g filter="url(#b)" transform="scale(21.441406) translate(0.5 0.5)"><g transform="translate(101.405981 78.435564) rotate(68.965244) scale(39.338141 81.626221)"><ellipse fill="#f89037" fill-opacity=".501961" cx="0" cy="0" rx="1" ry="1" /></g><g transform="translate(163.435173 168.099560) rotate(176.671074) scale(220.082652 52.546358)"><ellipse fill="#000224" fill-opacity=".501961" cx="0" cy="0" rx="1" ry="1" /></g><g transform="translate(204 82) rotate(226) scale(18 107)"><path d="M0 0h5489v3659H0z" fill="#ffffd9" /></g><g transform="translate(60.493904 121.016505) rotate(86.848229) scale(22.550358 141.934961)"><ellipse fill="#1b6e8e" fill-opacity=".501961" cx="0" cy="0" rx="1" ry="1" /></g><g transform="translate(99.392582 75.100042) rotate(260.718004) scale(10.097719 32.095471)"><ellipse fill="#ffffe2" fill-opacity=".501961" cx="0" cy="0" rx="1" ry="1" /></g><g transform="translate(136 68) rotate(261) scale(56 46)"><path d="M0 0h5489v3659H0z" fill="#ff6400" /></g><g transform="translate(254.276797 22.716744) rotate(308.630524) scale(76.102264 6.810099)"><ellipse fill="#ffedb7" fill-opacity=".501961" cx="0" cy="0" rx="1" ry="1" /></g><path d="M0 0h5489v3659H0z" fill="#c4bfb9" /></g></svg>