<svg xmlns="http://www.w3.org/2000/svg" viewBox="0 0 6000 3375"><filter id="b"><feGaussianBlur stdDeviation="12" /></filter><path d="M0 0h6e3v3375H0z" fill="#214870" /><g filter="url(#b)" transform="scale(23.437500) translate(0.5 0.5)"><g transform="translate(151.567102 59.228578) rotate(275.862406) scale(27.218042 82.941184)"><ellipse fill="#c3b594" fill-opacity=".501961" cx="0" cy="0" rx="1" ry="1" /></g><ellipse fill="#002080" fill-opacity=".501961" cx="103" cy="122" rx="146" ry="45" /><ellipse fill="#ceffda" fill-opacity=".501961" cx="0" cy="0" rx="46" ry="12" /><path d="M0 0h6e3v3375H0z" fill="#dacdb2" /><path fill="#dededb" fill-opacity=".501961" d="M208 67l24 31L132 63z" /><g transform="translate(200.788751 33.938192) rotate(383.216555) scale(91.573984 38.476865)"><ellipse fill="#0f2e3b" fill-opacity=".501961" cx="0" cy="0" rx="1" ry="1" /></g><g transform="translate(231.708706 143.000000) rotate(310.986443) scale(91.962908 30.312492)"><ellipse fill="#001527" fill-opacity=".501961" cx="0" cy="0" rx="1" ry="1" /></g><ellipse fill="#002333" fill-opacity=".501961" cx="82" cy="11" rx="28" ry="28" /></g></svg>