<svg xmlns="http://www.w3.org/2000/svg" viewBox="0 0 5963 3354"><filter id="b"><feGaussianBlur stdDeviation="12" /></filter><path d="M0 0h5963v3354H0z" fill="#655d45" /><g filter="url(#b)" transform="scale(23.292969) translate(0.5 0.5)"><g transform="translate(97.731263 40.234060) rotate(60.751043) scale(70.690028 91.117414)"><ellipse fill="#c5c6b8" fill-opacity=".501961" cx="0" cy="0" rx="1" ry="1" /></g><ellipse fill="#000" fill-opacity=".501961" cx="233" cy="68" rx="35" ry="142" /><g transform="translate(102.732654 135.386166) rotate(86.553225) scale(23.546840 207.930088)"><ellipse fill="#310000" fill-opacity=".501961" cx="0" cy="0" rx="1" ry="1" /></g><ellipse fill="#473500" fill-opacity=".501961" cx="162" cy="81" rx="17" ry="39" /><g transform="translate(248.719185 72.562873) rotate(259.145151) scale(150.413181 42.087159)"><ellipse fill="#000100" fill-opacity=".501961" cx="0" cy="0" rx="1" ry="1" /></g><g transform="translate(15.066603 115.439672) rotate(-31.135577) scale(19.505906 40.282732)"><ellipse fill="#000c00" fill-opacity=".501961" cx="0" cy="0" rx="1" ry="1" /></g><g transform="translate(113.806660 28.334664) rotate(90.133895) scale(18.666393 48.584991)"><ellipse fill="#d7d9e2" fill-opacity=".501961" cx="0" cy="0" rx="1" ry="1" /></g><path fill="#e8f1f7" fill-opacity=".501961" d="M65.673968 68.571038 39.532025 64.330919 23.332654 55.007947.925847 81.170188z" /></g></svg>