<svg xmlns="http://www.w3.org/2000/svg" viewBox="0 0 3944 5916"><filter id="b"><feGaussianBlur stdDeviation="12" /></filter><path d="M0 0h3944v5916H0z" fill="#5e6263" /><g filter="url(#b)" transform="scale(23.109375) translate(0.5 0.5)"><g transform="translate(85.323028 28.462428) rotate(4.497342) scale(144.555605 44.915416)"><ellipse fill="#fff" fill-opacity=".501961" cx="0" cy="0" rx="1" ry="1" /></g><g transform="translate(29.994896 118.591269) rotate(-98.775747) scale(41.418672 156.972006)"><ellipse fill="#000" fill-opacity=".501961" cx="0" cy="0" rx="1" ry="1" /></g><g transform="translate(80.893855 236.589956) rotate(270.206787) scale(30.311598 169.000000)"><ellipse fill="#000" fill-opacity=".501961" cx="0" cy="0" rx="1" ry="1" /></g><g transform="translate(124.785549 158.988512) rotate(81.587384) scale(27.332309 56.324896)"><ellipse fill="#d7d1d1" fill-opacity=".501961" cx="0" cy="0" rx="1" ry="1" /></g><ellipse fill="#f2f5f6" fill-opacity=".501961" cx="104" cy="51" rx="79" ry="32" /><g transform="translate(0.000000 131.369718) rotate(208.286550) scale(50.327629 80.000965)"><ellipse fill="#000" fill-opacity=".501961" cx="0" cy="0" rx="1" ry="1" /></g><ellipse fill="#000" fill-opacity=".501961" cx="43" cy="245" rx="169" ry="30" /><path fill="#000" fill-opacity=".501961" d="M-16 38 94 157-16 156z" /></g></svg>