<svg xmlns="http://www.w3.org/2000/svg" viewBox="0 0 2990 4484"><filter id="b"><feGaussianBlur stdDeviation="12" /></filter><path d="M0 0h2990v4484H0z" fill="#1e1d19" /><g filter="url(#b)" transform="scale(17.515625) translate(0.5 0.5)"><g transform="translate(91.382147 147.728715) rotate(142.075377) scale(43.306018 25.602295)"><ellipse fill="#a8ada0" fill-opacity=".501961" cx="0" cy="0" rx="1" ry="1" /></g><g transform="translate(79.807778 71.306524) rotate(-1.479731) scale(10.183423 21.519838)"><ellipse fill="#99aeac" fill-opacity=".501961" cx="0" cy="0" rx="1" ry="1" /></g><ellipse fill="#85c15e" fill-opacity=".501961" cx="17" cy="103" rx="17" ry="19" /><g transform="translate(96.386412 166.614003) rotate(269.880071) scale(6.532494 26.174263)"><ellipse fill="#ffdda7" fill-opacity=".501961" cx="0" cy="0" rx="1" ry="1" /></g><g transform="translate(90.170388 241.816190) rotate(84.681023) scale(54.901921 121.717751)"><ellipse fill="#040000" fill-opacity=".501961" cx="0" cy="0" rx="1" ry="1" /></g><ellipse fill="#000" fill-opacity=".501961" cx="114" cy="0" rx="59" ry="59" /><path fill="#55b9d8" fill-opacity=".501961" d="M75 136l-6-19 47 20z" /><path fill="#0a0500" fill-opacity=".501961" d="M86.618002 143.660441-16 137.859601.695653 149.26887 102.223436 161.705559z" /></g></svg>