<svg xmlns="http://www.w3.org/2000/svg" viewBox="0 0 6000 4000"><filter id="b"><feGaussianBlur stdDeviation="12" /></filter><path d="M0 0h6e3v4e3H0z" fill="#473f34" /><g filter="url(#b)" transform="scale(23.437500) translate(0.5 0.5)"><g transform="translate(34.625637 146.591386) rotate(217.420528) scale(77.688453 41.832350)"><ellipse fill="#ffffc9" fill-opacity=".501961" cx="0" cy="0" rx="1" ry="1" /></g><g transform="translate(108.675782 98.667106) rotate(259.438909) scale(15.769587 51.952359)"><ellipse fill="#ff9c5b" fill-opacity=".501961" cx="0" cy="0" rx="1" ry="1" /></g><ellipse fill="#000009" fill-opacity=".501961" cx="85" cy="13" rx="141" ry="44" /><g transform="translate(225.369108 134.009756) rotate(338.241023) scale(67.415036 42.736041)"><ellipse fill="#000004" fill-opacity=".501961" cx="0" cy="0" rx="1" ry="1" /></g><g transform="translate(42.374911 122.979588) rotate(186.427027) scale(23.851616 15.922226)"><ellipse fill="#ee5d00" fill-opacity=".501961" cx="0" cy="0" rx="1" ry="1" /></g><ellipse fill="#f0dcb6" fill-opacity=".501961" cx="9" cy="155" rx="27" ry="62" /><path d="M0 0h6e3v4e3H0z" fill="#ff946a" /><g transform="translate(245.353998 56.897670) rotate(-6.973783) scale(21.291574 47.912613)"><ellipse fill="#000810" fill-opacity=".501961" cx="0" cy="0" rx="1" ry="1" /></g></g></svg>