<svg xmlns="http://www.w3.org/2000/svg" viewBox="0 0 6000 4000"><filter id="b"><feGaussianBlur stdDeviation="12" /></filter><path d="M0 0h6e3v4e3H0z" fill="#5c4f37" /><g filter="url(#b)" transform="scale(23.437500) translate(0.5 0.5)"><g transform="translate(103 79) rotate(283) scale(78 56)"><path d="M0 0h6e3v4e3H0z" fill="#fffff4" /></g><ellipse fill="#000" fill-opacity=".501961" cx="0" cy="70" rx="68" ry="68" /><ellipse fill="#fd9225" fill-opacity=".501961" cx="159" cy="86" rx="28" ry="46" /><path d="M0 0h6e3v4e3H0z" fill="#c8d9d9" /><ellipse fill="#001522" fill-opacity=".501961" cx="216" cy="169" rx="67" ry="44" /><g transform="translate(92 51) rotate(301) scale(24 68)"><path d="M0 0h6e3v4e3H0z" fill="#e8eed8" /></g><ellipse fill="#554014" fill-opacity=".501961" cx="125" cy="121" rx="29" ry="29" /><g transform="translate(234.251352 66.308704) rotate(141.568827) scale(79.376567 18.763020)"><ellipse fill="#1b0800" fill-opacity=".501961" cx="0" cy="0" rx="1" ry="1" /></g></g></svg>