<svg xmlns="http://www.w3.org/2000/svg" viewBox="0 0 5418 3612"><filter id="b"><feGaussianBlur stdDeviation="12" /></filter><path d="M0 0h5418v3612H0z" fill="#45636f" /><g filter="url(#b)" transform="scale(21.164062) translate(0.5 0.5)"><ellipse fill="#fff" fill-opacity=".501961" cx="18" cy="129" rx="41" ry="41" /><ellipse fill="#d7fefa" fill-opacity=".501961" cx="69" cy="105" rx="24" ry="24" /><g transform="translate(132.246316 2.104893) rotate(171.123010) scale(238.941613 31.040048)"><ellipse fill="#001c4f" fill-opacity=".501961" cx="0" cy="0" rx="1" ry="1" /></g><g transform="translate(218.770594 138.517481) rotate(207.705066) scale(92.618817 20.345171)"><ellipse fill="#201201" fill-opacity=".501961" cx="0" cy="0" rx="1" ry="1" /></g><g transform="translate(12.465633 71.499904) rotate(266.443757) scale(24.638500 96.584491)"><ellipse fill="#1b89c5" fill-opacity=".501961" cx="0" cy="0" rx="1" ry="1" /></g><ellipse fill="#000400" fill-opacity=".501961" cx="95" cy="169" rx="30" ry="30" /><g transform="translate(232.336370 33.565771) rotate(123.630301) scale(38.880752 57.035535)"><ellipse fill="#0b2725" fill-opacity=".501961" cx="0" cy="0" rx="1" ry="1" /></g><g transform="translate(16.149895 150.488757) rotate(275.612572) scale(39.254658 27.283902)"><ellipse fill="#fcffdf" fill-opacity=".501961" cx="0" cy="0" rx="1" ry="1" /></g></g></svg>