<svg xmlns="http://www.w3.org/2000/svg" viewBox="0 0 2497 3745"><filter id="b"><feGaussianBlur stdDeviation="12" /></filter><path d="M0 0h2497v3745H0z" fill="#a8a49e" /><g filter="url(#b)" transform="scale(14.628906) translate(0.5 0.5)"><g transform="translate(49.526708 201.284547) rotate(113.603898) scale(60.691422 170.000000)"><ellipse fill="#1a0900" fill-opacity=".501961" cx="0" cy="0" rx="1" ry="1" /></g><g transform="translate(104.013517 58.993262) rotate(197.944560) scale(117.445089 84.625659)"><ellipse fill="#fff" fill-opacity=".501961" cx="0" cy="0" rx="1" ry="1" /></g><g transform="translate(159.763472 172.320091) rotate(45.254591) scale(27.719815 31.661168)"><ellipse fill="#373225" fill-opacity=".501961" cx="0" cy="0" rx="1" ry="1" /></g><ellipse fill="#fdffff" fill-opacity=".501961" cx="99" cy="23" rx="104" ry="104" /><ellipse fill="#080505" fill-opacity=".501961" cx="0" cy="167" rx="48" ry="48" /><path fill="#000" fill-opacity=".501961" d="M-4 127l135 45-64 4z" /><g transform="translate(67.535524 255.000000) rotate(264.364757) scale(38.034306 170.000000)"><ellipse fill="#8e8e6b" fill-opacity=".501961" cx="0" cy="0" rx="1" ry="1" /></g><g transform="translate(0.640682 164.962279) rotate(13.221604) scale(45.530037 5.603013)"><ellipse fill="#d1c9b9" fill-opacity=".501961" cx="0" cy="0" rx="1" ry="1" /></g></g></svg>