<svg xmlns="http://www.w3.org/2000/svg" viewBox="0 0 512 512"><filter id="b"><feGaussianBlur stdDeviation="12" /></filter><path d="M0 0h512v512H0z" fill="#bce085" /><g filter="url(#b)" transform="scale(2.000000) translate(0.5 0.5)"><path d="M0 0h512v512H0z" fill="#000" /><g transform="translate(178.489561 136.234566) rotate(363.539348) scale(36.004632 23.530584)"><ellipse fill="#fff" fill-opacity=".501961" cx="0" cy="0" rx="1" ry="1" /></g><ellipse fill="#fff" fill-opacity=".501961" cx="75" cy="138" rx="37" ry="24" /><path fill="#000" fill-opacity=".501961" d="M49 102 20 114l16 37z" /><path fill="#0b0324" fill-opacity=".501961" d="M205.379311 116.728112 222.689574 153.450775 238.679691 100.988996 130.658114 105.958756z" /><g transform="translate(180 164) rotate(182) scale(55 8)"><path d="M0 0h512v512H0z" fill="#000" /></g><path fill="#000" fill-opacity=".501961" d="M46.771404 110.107246 114.187759 112.520785 108.078616 103.237849 43.374142 104.106379z" /><ellipse fill="#000" fill-opacity=".501961" cx="73" cy="164" rx="31" ry="6" /></g></svg>